<?xml version="1.0" encoding="utf-8"?>
<!-- Generator: Adobe Illustrator 24.0.1, SVG Export Plug-In . SVG Version: 6.00 Build 0)  -->
<svg version="1.1" id="Camada_1" xmlns="http://www.w3.org/2000/svg" xmlns:xlink="http://www.w3.org/1999/xlink" x="0px" y="0px"
	 viewBox="0 0 1010.9 727.3" style="enable-background:new 0 0 1010.9 727.3;" xml:space="preserve">
<style type="text/css">
	.st0{fill:#535461;}
	.st1{fill:#E6E6E6;}
	.st2{fill:#FFB9B9;}
	.st3{fill:#3F3D56;}
	.st4{fill:#F2F2F2;}
	.st5{fill:#EC268F;}
	.st6{fill:#FF6584;}
	.st7{fill:#FFFFFF;}
	.st8{opacity:0.2;fill:#EC268F;enable-background:new    ;}
	.st9{fill:#2F2E41;}
	.st10{opacity:0.1;enable-background:new    ;}
	.st11{fill-rule:evenodd;clip-rule:evenodd;}
	.st12{fill-rule:evenodd;clip-rule:evenodd;fill:#C90087;}
	.st13{fill-rule:evenodd;clip-rule:evenodd;fill:#FFFFFF;}
</style>
<g id="eb1b09ad-1fe0-40ca-8096-34696e14e30a">
	<g>
		<path class="st0" d="M598.2,436.1l0.2,0.9c0,0-3.3,2.9-6.8,1.4l-0.2-0.8L598.2,436.1z"/>
		<path class="st0" d="M563.9,443.4l0.2,0.9c0,0-3.3,2.9-6.8,1.4l-0.2-0.8L563.9,443.4z"/>
		<path class="st1" d="M586.9,438.6l3.7-0.8c0,0,1.2,0.9,4.3,0.2s3.6-1.8,3.6-1.8s2.7-2.7,2.8-5.5c0,0,1.4-12.2-0.4-21.2
			s-5.5-9.5-7.4-9.4s-5,1.1-6.5,9.7l-0.4,4.9c0,0,0.3,2.8-2.8,1.7s-5.1,2.1-5.1,2.1l-10.6,2.2c0,0-4-1.5-6.9,1c0,0-0.9,1.9-3.3-3.4
			c0,0-6-10.7-11.4-8.3c-5.3,2.4-2.7,11.8-2.7,11.8s3.8,14.5,8,19c0,0,4.1,4.8,6.1,4.6c0,0,4.4-0.1,5.9-1.2l0.8-1L586.9,438.6z"/>
		<circle class="st0" cx="593.9" cy="429.1" r="7"/>
		<circle class="st0" cx="558.2" cy="436.6" r="7"/>
		<path class="st1" d="M593,430.9l0.7-1c0.1-0.2,0.4-0.2,0.6-0.1l1.1,0.6c0.1,0.1,0.2,0.2,0.2,0.3l0.5,2.2c0,0.2-0.1,0.5-0.3,0.5
			l-1.8,0.4c-0.2,0-0.5-0.1-0.5-0.3l-0.5-2.2C592.9,431.1,592.9,431,593,430.9z"/>
		<path class="st1" d="M592.3,427.8l1.1,0.6c0.2,0.1,0.4,0.1,0.6-0.1l0.7-1c0.1-0.1,0.1-0.2,0.1-0.3l-0.5-2.2c0-0.2-0.3-0.4-0.5-0.3
			l-1.8,0.4c-0.2,0-0.4,0.3-0.3,0.5l0.5,2.2C592.2,427.6,592.2,427.7,592.3,427.8z"/>
		<path class="st1" d="M595.1,427.6l-0.6,1.1c-0.1,0.2-0.1,0.4,0.1,0.6l1,0.7c0.1,0.1,0.2,0.1,0.3,0.1l2.2-0.5
			c0.2,0,0.4-0.3,0.3-0.5l-0.4-1.8c0-0.2-0.3-0.4-0.5-0.3l-2.2,0.5C595.3,427.4,595.2,427.5,595.1,427.6z"/>
		<path class="st1" d="M592.1,428.2l1,0.7c0.2,0.1,0.2,0.4,0.1,0.6l-0.6,1.1c-0.1,0.1-0.2,0.2-0.3,0.2l-2.2,0.5
			c-0.2,0-0.5-0.1-0.5-0.3l-0.4-1.8c0-0.2,0.1-0.5,0.3-0.5l2.2-0.5C591.9,428.1,592,428.1,592.1,428.2z"/>
		<circle class="st0" cx="583" cy="423.6" r="5.1"/>
		<circle class="st0" cx="565.9" cy="427.2" r="5.1"/>
		<circle class="st1" cx="583" cy="423.6" r="3.4"/>
		<path class="st0" d="M582.5,421.3c1.3-0.3,2.5,0.5,2.8,1.8s-0.5,2.5-1.8,2.8s-2.5-0.5-2.8-1.8l0,0
			C580.5,422.8,581.3,421.6,582.5,421.3z M583.5,425.7c1.2-0.2,1.9-1.4,1.7-2.6s-1.4-1.9-2.6-1.7c-1.2,0.2-1.9,1.4-1.7,2.6l0,0
			C581.1,425.2,582.3,425.9,583.5,425.7z"/>
		<circle class="st1" cx="565.9" cy="427.2" r="3.4"/>
		<path class="st0" d="M565.4,424.9c1.3-0.3,2.5,0.5,2.8,1.8s-0.5,2.5-1.8,2.8s-2.5-0.5-2.8-1.8S564.1,425.2,565.4,424.9z
			 M566.3,429.3c1.2-0.2,1.9-1.4,1.7-2.6s-1.4-1.9-2.6-1.7c-1.2,0.2-1.9,1.4-1.7,2.6l0,0C564,428.8,565.1,429.6,566.3,429.3z"/>
		<circle class="st0" cx="574.2" cy="424.9" r="1.4"/>
		<circle class="st0" cx="577.3" cy="429.1" r="0.3"/>
		<circle class="st0" cx="576.2" cy="429.4" r="0.3"/>
		<circle class="st0" cx="576" cy="427.9" r="0.3"/>
		<circle class="st0" cx="574.9" cy="428.1" r="0.3"/>
		<circle class="st0" cx="573.9" cy="428.3" r="0.3"/>
		<circle class="st0" cx="576.6" cy="428.5" r="0.3"/>
		<circle class="st0" cx="575.6" cy="428.7" r="0.3"/>
		<circle class="st0" cx="574.6" cy="428.9" r="0.3"/>
		<circle class="st0" cx="573.5" cy="429.1" r="0.3"/>
		<circle class="st0" cx="575.2" cy="429.6" r="0.3"/>
		<circle class="st0" cx="574.1" cy="429.8" r="0.3"/>
		<circle class="st0" cx="573.2" cy="430" r="0.3"/>
		<path class="st0" d="M589.1,437.4c0.3-0.1,0.5-0.4,0.4-0.7l-0.3-1.7c-0.1-0.3-0.4-0.5-0.7-0.4l-0.4,0.1c-0.3,0.1-0.5,0.4-0.4,0.7
			l0.3,1.7c0.1,0.3,0.4,0.5,0.7,0.4L589.1,437.4z"/>
		<path class="st0" d="M566.1,442.3c0.3-0.1,0.5-0.4,0.4-0.7l-0.3-1.7c-0.1-0.3-0.4-0.5-0.7-0.4l-0.4,0.1c-0.3,0.1-0.5,0.4-0.4,0.7
			l0.3,1.7c0.1,0.3,0.4,0.5,0.7,0.4L566.1,442.3z"/>
		<circle class="st1" cx="559" cy="440.8" r="1.9"/>
		<circle class="st1" cx="562.1" cy="436" r="1.9"/>
		<circle class="st1" cx="554" cy="437.9" r="1.9"/>
		<circle class="st1" cx="557" cy="432.9" r="1.9"/>
		<path class="st0" d="M585.8,439.3c0.9-0.2,1.4-1,1.3-1.9l-1.5-7c-0.2-0.9-1-1.4-1.9-1.3l-16.1,3.4c-0.9,0.2-1.4,1-1.3,1.9l1.5,7
			c0.2,0.9,1,1.4,1.9,1.3L585.8,439.3z"/>
		<path class="st0" d="M557.5,440.2l2.6-0.5l-0.8,2.4L557.5,440.2z M559.8,439.9l-2,0.4l1.4,1.4L559.8,439.9z"/>
		<path class="st0" d="M560.9,435.2l2.1-0.4l0.4,1.9l-2.1,0.4L560.9,435.2z M562.9,435l-1.8,0.4l0.3,1.6l1.8-0.4L562.9,435z"/>
		<path class="st0" d="M553.8,436.7c0.7-0.1,1.3,0.3,1.4,0.9c0.1,0.7-0.3,1.3-0.9,1.4c-0.7,0.1-1.3-0.3-1.4-0.9
			C552.7,437.5,553.1,436.9,553.8,436.7z M554.2,438.9c0.6-0.1,0.9-0.7,0.8-1.2c-0.1-0.6-0.7-0.9-1.2-0.8c-0.6,0.1-0.9,0.7-0.8,1.2
			l0,0C553.1,438.7,553.7,439.1,554.2,438.9L554.2,438.9z"/>
		
			<rect x="557" y="431.7" transform="matrix(0.5454 -0.8382 0.8382 0.5454 -109.6435 663.7686)" class="st0" width="0.2" height="2.6"/>
		
			<rect x="555.7" y="432.9" transform="matrix(0.5638 -0.8259 0.8259 0.5638 -114.631 648.9368)" class="st0" width="2.6" height="0.2"/>
	</g>
	<path class="st2" d="M587.1,209.7c0,0,4.8,62,3.5,64.7s0,96.5,0,96.5s-9.7,50.6,2.8,53.3s9.7-56.7,9.7-56.7l12.5-78.3l-1.4-77.6
		L587.1,209.7z"/>
	<title>unlock</title>
	<path class="st3" d="M1010.9,727.3c-52.1-7.6-102.2-14.2-150.3-19.7l19-30.8c-6.4-1.9-34.6,15.7-34.6,15.7l25-89.5
		c-32.2,3.1-48.7,94.5-48.7,94.5l-36-31.1l17.4,34.9c-147.2-15.2-274.4-21.2-381.3-21.9l16.3-26.3c-6.4-1.9-34.6,15.7-34.6,15.7
		l25-89.5c-32.2,3.1-48.7,94.5-48.7,94.5l-36-31.1l18.5,36.9c-89.7,1.1-162.8,5.9-219.2,11.5c16.5-41.1,72.4-80,72.4-80
		c-42.7,10.4-65.1,28.2-76.8,44.7c-0.9-50.8,5.1-145,49.9-249.1c0,0-88.3,160.4-77,268.4l1.3,19.2C37.6,702.8,0,712,0,712
		L1010.9,727.3z"/>
	<path class="st3" d="M537.5,29.1v648.2c0,16.1-13.1,29.1-29.1,29.1H245.2c-16.1,0-29.1-13-29.1-29v-0.1V29.1
		c0-16.1,13-29.1,29.1-29.1l0,0h39.4v5.1c0,13.2,10.7,24,24,24h133.8c5.1,0,10.1-1.6,14.2-4.7c0.8-0.6,1.6-1.3,2.4-2
		c4.7-4.5,7.4-10.8,7.4-17.3V0h42C524.5,0,537.5,13,537.5,29.1L537.5,29.1z"/>
	<circle class="st4" cx="289.4" cy="108" r="7"/>
	<path class="st5" d="M459,22.4c-0.7,0.7-1.5,1.4-2.4,2c17.3,30.5,46.7,52.3,80.9,60.2v-3.1C504.3,73.6,475.8,52.2,459,22.4z"/>
	<path class="st5" d="M399.2,29h-3.3c23.7,60.2,77.6,103.3,141.6,113.1V139C475.2,129.3,422.7,87.5,399.2,29z"/>
	<path class="st5" d="M338.8,29h-3.2c26.4,91.7,106.2,160,201.9,171.1v-3C443.5,186.1,365.1,119.1,338.8,29z"/>
	<polygon class="st4" points="266.4,159.8 264.6,159.8 264.6,158 264.2,158 264.2,159.8 262.4,159.8 262.4,160.2 264.2,160.2 
		264.2,162 264.6,162 264.6,160.2 266.4,160.2 	"/>
	<polygon class="st4" points="389.4,68.8 387.6,68.8 387.6,67 387.2,67 387.2,68.8 385.4,68.8 385.4,69.2 387.2,69.2 387.2,71 
		387.6,71 387.6,69.2 389.4,69.2 	"/>
	<polygon class="st4" points="284.4,231.8 282.6,231.8 282.6,230 282.2,230 282.2,231.8 280.4,231.8 280.4,232.2 282.2,232.2 
		282.2,234 282.6,234 282.6,232.2 284.4,232.2 	"/>
	<polygon class="st4" points="368.4,178.8 366.6,178.8 366.6,177 366.2,177 366.2,178.8 364.4,178.8 364.4,179.2 366.2,179.2 
		366.2,181 366.6,181 366.6,179.2 368.4,179.2 	"/>
	<polygon class="st4" points="488.4,211.8 486.6,211.8 486.6,210 486.2,210 486.2,211.8 484.4,211.8 484.4,212.2 486.2,212.2 
		486.2,214 486.6,214 486.6,212.2 488.4,212.2 	"/>
	<circle class="st6" cx="467.4" cy="125" r="4"/>
	<path class="st1" d="M324.1,218.8l-2.3,0.4c0.7,4.5,1.3,9.2,1.7,13.8l2.3-0.2C325.4,228.1,324.8,223.4,324.1,218.8z"/>
	<path class="st1" d="M317.9,191.5l-2.2,0.7c1.3,4.4,2.5,8.9,3.5,13.4l2.3-0.5C320.5,200.5,319.3,195.9,317.9,191.5z"/>
	<path class="st1" d="M308,165.2l-2.1,1c1.9,4.2,3.7,8.5,5.4,12.8l2.1-0.8C311.8,173.8,310,169.5,308,165.2z"/>
	<path class="st1" d="M294.6,140.7l-1.9,1.2c2.5,3.9,4.8,7.9,7,11.9l2-1.1C299.5,148.6,297.1,144.6,294.6,140.7z"/>
	<path class="st1" d="M277.9,118.1l-1.8,1.5c3,3.5,5.9,7.2,8.6,10.9l1.8-1.4C283.9,125.4,281,121.7,277.9,118.1z"/>
	<path class="st1" d="M258.4,98.1l-1.5,1.7c3.4,3.1,6.8,6.3,10,9.6l1.6-1.6C265.3,104.4,261.8,101.2,258.4,98.1z"/>
	<path class="st1" d="M236.2,80.8l-1.3,1.9c3.8,2.6,7.6,5.3,11.2,8.1l1.4-1.8C243.9,86.2,240.1,83.5,236.2,80.8z"/>
	<path class="st1" d="M216.1,68.9v2.6c2.4,1.3,4.8,2.6,7.1,3.9l1.1-2C221.6,71.8,218.9,70.3,216.1,68.9z"/>
	<path class="st1" d="M323.6,434.8c0.4-2.2,0.7-4.5,1-6.8l2.3,0.3c-0.3,2.3-0.6,4.6-1,6.9L323.6,434.8z"/>
	<path class="st1" d="M317.2,461.8l2.2,0.7c1.4-4.4,2.6-9,3.7-13.5l-2.2-0.5C319.8,452.9,318.6,457.4,317.2,461.8z"/>
	<path class="st1" d="M307.2,487.6l2.1,1c2-4.2,3.8-8.5,5.5-12.9l-2.1-0.8C311,479.2,309.1,483.5,307.2,487.6z"/>
	<path class="st1" d="M293.6,511.8l1.9,1.3c2.5-3.9,5-7.9,7.3-12l-2-1.1C298.6,504,296.2,508,293.6,511.8z"/>
	<path class="st1" d="M276.9,534l1.7,1.5c3.1-3.5,6-7.2,8.8-10.9l-1.8-1.4C282.9,526.9,280,530.5,276.9,534z"/>
	<path class="st1" d="M257.4,553.6l1.5,1.7c3.5-3.1,7-6.3,10.2-9.6l-1.6-1.6C264.2,547.4,260.8,550.6,257.4,553.6z"/>
	<path class="st1" d="M235.3,570.4l1.3,1.9c3.9-2.6,7.7-5.3,11.4-8.1l-1.4-1.8C243,565.2,239.1,567.9,235.3,570.4z"/>
	<path class="st1" d="M224.6,579.7c-2.8,1.6-5.6,3.1-8.5,4.5v-2.6c2.5-1.3,4.9-2.6,7.4-3.9L224.6,579.7z"/>
	<path class="st1" d="M324.3,247.1h2.3c0,2.3,0,4.7,0,6.9h-2.3C324.3,251.7,324.3,249.4,324.3,247.1z"/>
	<path class="st7" d="M226.2,301.6h235.2c36.5,0,66,29.5,66,66v8.7l0,0H292.2c-36.5,0-66-29.5-66-66l0,0L226.2,301.6L226.2,301.6z"
		/>
	<path class="st4" d="M382.3,705.5c-0.2-0.4-5.6-9.4-7.5-28.2c-1.7-17.2-0.6-46.2,14.4-86.7c28.5-76.7-6.6-138.5-6.9-139.1l1.7-1
		c0.1,0.2,9.1,15.9,14.5,41c7.1,33.3,4.5,67.9-7.4,99.8c-28.5,76.5-7.3,112.8-7.1,113.1L382.3,705.5z"/>
	<circle class="st5" cx="371.2" cy="434" r="13"/>
	<circle class="st4" cx="412.2" cy="482" r="13"/>
	<circle class="st5" cx="384.2" cy="514" r="13"/>
	<circle class="st5" cx="418.2" cy="541" r="13"/>
	<circle class="st4" cx="374.2" cy="583" r="13"/>
	<path class="st4" d="M390.2,706c0,0-13-32,26-56L390.2,706z"/>
	<path class="st4" d="M374.2,705.4c0,0-5.9-34-51.7-33.7L374.2,705.4z"/>
	<circle class="st8" cx="322.4" cy="339" r="80"/>
	<circle class="st8" cx="322.4" cy="339" r="56.3"/>
	<circle class="st5" cx="322.4" cy="339" r="37.2"/>
	<path class="st7" d="M329.2,331c0-3.7-3-6.8-6.8-6.8c-3.7,0-6.8,3-6.8,6.8c0,2,0.9,4,2.5,5.2l-2.5,17.4h13.5l-2.5-17.4
		C328.3,334.9,329.2,333,329.2,331z"/>
	<path class="st9" d="M696.1,53.3c0,0-22.3-20-52.3,17.7s-76.9,56.1-87.7,70.8c0,0,44.6-18.5,60-26.1s14.6-6.2,14.6-6.2
		s-20.8,14.6-24.6,29.2s-0.8,26.9-7.7,41.5s132.3,10,132.3,10s13.8-23.8,10-48.4S739.2,56.4,696.1,53.3z"/>
	<path class="st2" d="M653.9,116.2c0,0,4.8,33.9-15.9,41.6s-13.2,18-13.2,18L656,191l33.3-10.4l11.1-16.6c0,0-18-4.2-13.2-16.6
		s6.2-16.6,6.2-16.6L653.9,116.2z"/>
	<path class="st10" d="M653.9,116.2c0,0,4.8,33.9-15.9,41.6s-13.2,18-13.2,18L656,191l33.3-10.4l11.1-16.6c0,0-18-4.2-13.2-16.6
		s6.2-16.6,6.2-16.6L653.9,116.2z"/>
	<path class="st2" d="M741.2,213.2c0,0-4.8,63.7-3.5,66.5s0,99.1,0,99.1s9.7,52-2.8,54.7s-9.7-58.2-9.7-58.2l-12.5-80.4l1.4-79.7
		L741.2,213.2z"/>
	<path class="st10" d="M741.2,213.2c0,0-4.8,63.7-3.5,66.5s0,99.1,0,99.1s9.7,52-2.8,54.7s-9.7-58.2-9.7-58.2l-12.5-80.4l1.4-79.7
		L741.2,213.2z"/>
	<path class="st2" d="M606.1,405.1c0,0-22.9,86.6-22.2,128.9s9.7,101.1,9.7,101.1s1.4,25.6-0.7,28.4c-2.1,2.8,10.4,14.5,10.4,14.5
		l13.2-7.6l4.8-5.5V660c0,0-7.6-23.6-1.4-42.3c6.2-18.7,9.7-65.8,3.5-80.4l43-127.5L606.1,405.1z"/>
	<path class="st9" d="M604.7,667c0,0-8.3-10.4-13.9-6.9s-14.5,27-14.5,27s-31.2,29.8-9,31.2s31.9-6.2,34.6-11.8s28.4-20.1,28.4-20.1
		s-2.8-26.3-6.9-27c-4.2-0.7-10.4,10.4-10.4,10.4L604.7,667z"/>
	<path class="st2" d="M681.6,410.6v85.9c0.1,10.4,0.8,20.8,2.1,31.2c2.1,15.2-11.8,128.9-11.8,128.9l1.4,20.1l17.3-1.4l2.1-17.3
		l24.9-76.2c0,0,8.3-46.4,4.2-63.7c-4.2-17.3,21.5-128.2,21.5-128.2L681.6,410.6z"/>
	<path class="st9" d="M667.8,671.8l5.1-1.1c0,0,3.9-8.6,8.7-6.5c3.4,1.6,6.6,3.5,9.6,5.8l2.1,3.9c0,0,4.8,10.4,11.1,17.3
		c6.2,6.9,13.2,22.2,2.8,23.6c-10.4,1.4-24.2,2.1-28.4-1.4s-1.4-9-5.5-10.4c-4.2-1.4-7.6-5.5-6.9-6.9S667.8,671.8,667.8,671.8z"/>
	<circle class="st2" cx="681.6" cy="109.3" r="30.8"/>
	<path class="st5" d="M623.4,163.3l9.2-3.2c0,0-3.6,6,15.8,9.4s39.5,4.7,48.5-6.7c0,0,3.5-1.7,8.3,3.2c4.8,4.8,7.6,3.5,7.6,3.5
		l-3.5,18l-6.9,33.3l-9,24.9l-25.6-5.5l-27.7-20.1l-10.4-27v-24.9L623.4,163.3z"/>
	<path class="st5" d="M708,173l6.9-4.8c0,0,23.6,4.2,24.9,15.2l-18,34.6c3.7,9.6,3.4,20.3-0.7,29.8c-6.9,15.9-6.2,19.4-6.2,19.4
		L710,288l-88,6.9c0,0-3.5-8.3-4.8-9.7s-1.4-6.2,0-6.2s0-2.1-1.4-4.2s-2.1-2.8,0-5.5s-3.5-27.7-3.5-27.7v-27l-23.6-31.2
		c0,0,8.3-12.5,12.5-13.9s23.9-6.8,23.9-6.8l4.5,6.6l6.2,50.1l9,30.5l37.9-6.4l14.7-24.7l9.7-29.1L708,173z"/>
	<path class="st5" d="M734.3,179.2l5.5,4.2c0,0,4.8,38.8,3.5,41.6s-25.6,5.5-26.3,4.2S734.3,179.2,734.3,179.2z"/>
	<path class="st9" d="M620,159.8l6.9,45.7c0,0-6.2,67.9-4.8,81.7l1.4,4.2c0,0-2.8-1.4-3.5,1.4s0,11.8,0,11.8s-4.2,4.2-5.5,27
		s-18,77.6-11.8,79.7s43.6,12.5,63.7,10.4s92.1-26.3,91.4-32.6s-35.3-94.2-35.3-94.2s-6.2-10.4-6.2-11.8s8.3-6.9,6.2-12.5
		S709.3,207,709.3,207l7.6-41.6l-10.4-2.8l-7.6,40.2c0,0-29.8,14.5-61,1.4l-6.9-47.1L620,159.8z"/>
	<path class="st9" d="M653.3,87.2c0,0,51.3,35.3,65.1,19.4s-24.2-29.8-24.2-29.8l-31.9-3.5L653.3,87.2z"/>
	<path class="st5" d="M594.3,181.3l-5.5,2.1c0,0-10.4,43.6-7.6,43.6s36,4.2,36,2.8s-6.2-35.3-6.2-35.3L594.3,181.3z"/>
	<g>
		<g>
			<g>
				<path class="st11" d="M685.3,225.1c0.1,0.1,0.2,0.3,0.1,0.5c0,0.2-0.2,0.3-0.3,0.4c-1.5,0.5-3,1-4.5,1.6c-1.5,0.5-3,1-4.5,1.5
					l-5,5.2c-0.1,0.1-0.2,0.1-0.3,0.2c-0.1,0-0.3,0-0.3-0.1l-2.2-2.1c-0.1-0.1-0.2-0.2-0.1-0.4c0-0.1,0.1-0.3,0.1-0.4l5-5.2
					c0.5-1.5,0.9-3,1.4-4.6c0.5-1.5,0.9-3,1.4-4.6c0.1-0.2,0.2-0.3,0.4-0.3s0.3,0,0.4,0.1l2.2,2.1c0.1,0.1,0.2,0.3,0.1,0.5
					c-0.3,0.9-0.6,1.8-0.9,2.8c-0.3,0.9-0.6,1.8-0.9,2.7c0.9-0.3,1.8-0.7,2.7-1s1.8-0.7,2.7-1c0.2-0.1,0.3,0,0.5,0.1L685.3,225.1z"
					/>
				<path class="st11" d="M663.6,236.1c-1.4-1.3-2.5-2.6-2.7-4.2c-0.1-1.3,0.1-2.8,1.4-4.3c1.3-1.4,2.9-1.7,4.2-1.6
					c1.7,0.1,2.7,1.1,4.2,2.5L663.6,236.1L663.6,236.1z M674.1,231.7l-7.2,7.5c1.4,1.3,2.7,2.4,4.3,2.5c1.3,0.1,2.8-0.2,4.2-1.6
					c1.3-1.4,1.5-3,1.4-4.3C676.6,234.1,675.6,233.2,674.1,231.7L674.1,231.7z M678.4,242.2c2.1-2.5,2.4-5.5,1.9-7.7
					c-0.7-3.4-2.9-4.9-5.7-7.6c-1.2-1.1-2.6-2.6-3.9-3.4c-6.5-3.9-15.1,1.7-13.4,9.7c0.7,3.4,3,5,5.7,7.6c1.2,1.2,2.6,2.6,3.9,3.4
					C670.7,246.4,675.5,245.6,678.4,242.2z"/>
			</g>
			<path class="st11" d="M652.7,258.5c0.3,0.6,0.6,1.2,0.9,1.7c0.3,0.6,0.6,1.2,1,1.7c0.1,0.1,0,0.3,0,0.4c-0.1,0.1-0.2,0.2-0.3,0.2
				c-0.7,0-1.3,0.1-2,0.1c-0.1,0-0.2-0.1-0.3-0.2c-0.6-1-1.1-2.1-1.7-3.1c-0.4,0.1-0.8,0.2-1.2,0.3c0,0.9,0,1.8-0.1,2.8
				c0,0.1,0,0.2-0.1,0.3c-0.1,0.1-0.2,0.1-0.3,0.1c-0.6,0-1.2,0-1.8,0.1c-0.1,0-0.2,0-0.2-0.1c-0.1-0.1-0.1-0.2-0.1-0.3
				c0-2,0.1-4,0.2-6.1c0.1-2,0.1-4,0.1-6.1c0-0.1,0-0.2,0.1-0.3s0.2-0.1,0.3-0.1c1.2-0.1,2.3-0.1,3.5-0.2c0.5,0,1,0,1.5,0.2
				s0.9,0.4,1.3,0.7c0.4,0.3,0.7,0.6,1,1.1c0.3,0.4,0.5,0.9,0.6,1.4s0.2,1,0.1,1.5c-0.1,0.5-0.2,1-0.4,1.5s-0.5,0.9-0.8,1.3
				C653.6,257.9,653.2,258.2,652.7,258.5L652.7,258.5z M650.9,256.4c0.4-0.1,0.7-0.3,0.9-0.5c0.2-0.2,0.4-0.5,0.5-0.8
				s0.1-0.6,0.1-0.9c0-0.3-0.1-0.6-0.3-0.8c-0.1-0.3-0.4-0.5-0.6-0.6c-0.3-0.2-0.6-0.2-1-0.2c-0.5,0-0.9,0-1.4,0.1
				c0,0.7,0,1.4,0,2.2c0,0.7,0,1.4,0,2.2c0.3-0.1,0.6-0.2,0.9-0.2C650.3,256.6,650.6,256.5,650.9,256.4z"/>
			<path class="st11" d="M665.1,257.5c0,0.7-0.1,1.3-0.4,1.9c-0.3,0.6-0.6,1.1-1,1.6s-0.9,0.8-1.5,1.1c-0.6,0.3-1.2,0.4-1.8,0.5
				c-0.6,0-1.2-0.1-1.8-0.3c-0.6-0.2-1-0.6-1.5-1c-0.4-0.4-0.7-0.9-1-1.5c-0.2-0.6-0.3-1.2-0.3-1.9c0-1.3,0.1-2.6,0.1-4
				c0-1.3,0.1-2.6,0.1-4c0-0.1,0-0.2,0.1-0.3s0.2-0.1,0.3-0.1c0.8,0,1.5-0.1,2.3-0.1c0.1,0,0.2,0,0.3,0.1s0.1,0.2,0.1,0.3
				c0,1.3-0.1,2.7-0.1,4s-0.1,2.6-0.1,4c0,0.2,0,0.5,0.1,0.7s0.2,0.4,0.3,0.5s0.3,0.3,0.5,0.3c0.2,0.1,0.4,0.1,0.6,0.1
				c0.2,0,0.4-0.1,0.6-0.2c0.2-0.1,0.4-0.2,0.5-0.4c0.2-0.2,0.3-0.3,0.4-0.6c0.1-0.2,0.1-0.4,0.1-0.7c0-1.3,0.1-2.7,0.1-4
				s0.1-2.7,0.1-4c0-0.1,0-0.2,0.1-0.3s0.2-0.1,0.3-0.1c0.8,0,1.5-0.1,2.3-0.1c0.1,0,0.2,0,0.3,0.1s0.1,0.2,0.1,0.3
				c0,1.3-0.1,2.7-0.1,4C665.1,254.8,665.1,256.2,665.1,257.5z"/>
			<path class="st11" d="M666.5,261.9c-0.1,0-0.2,0-0.3-0.1s-0.1-0.2-0.1-0.3c0-2,0.1-4.1,0.1-6.1s0.1-4.1,0.1-6.1
				c0-0.1,0-0.2,0.1-0.3s0.2-0.1,0.3-0.1c1.2,0,2.4-0.1,3.6-0.1c0.9,0,1.7,0.1,2.4,0.4c0.8,0.3,1.4,0.7,2,1.3s1,1.2,1.3,2
				s0.5,1.6,0.4,2.5c0,0.9-0.2,1.7-0.5,2.5s-0.8,1.5-1.4,2.1c-0.6,0.6-1.2,1.1-2,1.5s-1.6,0.6-2.4,0.6
				C668.9,261.7,667.7,261.8,666.5,261.9L666.5,261.9z M672.2,251.9c-0.2-0.1-0.5-0.3-0.7-0.3c-0.2-0.1-0.5-0.1-0.7-0.1
				s-0.5,0-0.7,0s-0.5,0-0.8,0c0,1.2,0.9,12.2,0.9,13.5c0,1.2-1-7.2-1-6c0.4,0,0.7,0,1.1,0c0.5,0,1.1-0.2,1.5-0.4
				c0.5-0.3,0.9-0.6,1.2-1s0.6-0.9,0.7-1.4c0.2-0.5,0.2-1.1,0.1-1.6c-0.1-0.5-0.2-1-0.5-1.5C673,252.5,672.7,252.2,672.2,251.9z"/>
			<path class="st11" d="M677.7,261.6c-0.1,0-0.2,0-0.2-0.1c-0.1-0.1-0.1-0.2-0.1-0.3c0-2,0.1-4.1,0.1-6.1s0.1-4.1,0.1-6.1
				c0-0.1,0-0.2,0.1-0.3s0.2-0.1,0.3-0.1c1.2-0.1,2.4-0.1,3.6-0.2c0.9,0,1.7,0.1,2.4,0.4c0.8,0.3,1.4,0.7,2,1.3s1,1.2,1.3,2
				s0.5,1.6,0.5,2.5s-0.2,1.8-0.5,2.6s-0.8,1.5-1.4,2.1c-0.6,0.6-1.2,1.1-2,1.5s-1.6,0.6-2.4,0.6
				C680.1,261.5,678.9,261.6,677.7,261.6L677.7,261.6z M683.4,251.7c-0.2-0.2-0.5-0.3-0.7-0.3c-0.2-0.1-0.5-0.1-0.7-0.1
				s-0.5,0-0.7,0c-0.3,0-0.5,0-0.8,0c0,1.2,0,2.5-0.1,3.7c0,1.2,0,2.5-0.1,3.7c0.4,0,0.7,0,1.1,0c0.5,0,1.1-0.2,1.5-0.4
				c0.5-0.3,0.9-0.6,1.2-1s0.6-0.9,0.7-1.4c0.2-0.5,0.2-1.1,0.1-1.6c-0.1-0.5-0.2-1-0.5-1.5C684.2,252.3,683.9,251.9,683.4,251.7z"
				/>
			<path class="st11" d="M695.7,247.7c0.1,0,0.2,0,0.3,0.2c0.1,0.1,0.1,0.2,0,0.4c-0.6,1.1-1.1,2.2-1.7,3.4
				c-0.6,1.1-1.1,2.2-1.7,3.4c0,0.9,0,1.9,0,2.8s0,1.9,0,2.8c0,0.1,0,0.2-0.1,0.3c-0.1,0.1-0.2,0.1-0.3,0.1c-0.8,0-1.5,0.1-2.3,0.1
				c-0.1,0-0.2,0-0.3-0.1s-0.1-0.2-0.1-0.3c0-0.9,0-1.9,0-2.8s0-1.9,0-2.8c-0.5-1.1-1.1-2.1-1.6-3.2c-0.5-1.1-1.1-2.1-1.6-3.2
				c-0.1-0.1,0-0.3,0-0.4c0.1-0.1,0.2-0.2,0.3-0.2c0.8,0,1.5-0.1,2.3-0.1c0.1,0,0.2,0.1,0.3,0.2c0.3,0.7,0.6,1.3,0.9,2
				c0.3,0.7,0.6,1.3,0.9,2c0.3-0.7,0.7-1.4,1-2.1c0.3-0.7,0.7-1.4,1-2.1c0.1-0.1,0.2-0.2,0.3-0.2
				C694.1,247.8,694.9,247.8,695.7,247.7z"/>
			<path class="st11" d="M678.4,264.2v3.6c0,0.1,0,0.2-0.1,0.2c-0.1,0.1-0.1,0.1-0.2,0.1c-0.1,0-0.2,0-0.2-0.1
				c-0.1-0.1-0.1-0.1-0.1-0.2v-3.6h-2.4c-0.1,0-0.3,0-0.3,0.1c-0.1,0.1-0.1,0.2-0.1,0.3c0,0.1,0,0.2,0.1,0.3
				c0.1,0.1,0.2,0.1,0.3,0.1c0.4,0,0.8,0.2,1.1,0.5s0.5,0.7,0.5,1.1s-0.2,0.8-0.5,1.1c-0.3,0.3-0.7,0.5-1.1,0.5
				c-0.4,0-0.8-0.2-1.1-0.5s-0.5-0.7-0.5-1.1c0-0.1,0-0.2,0.1-0.2c0.1-0.1,0.1-0.1,0.2-0.1c0.1,0,0.2,0,0.2,0.1
				c0.1,0.1,0.1,0.1,0.1,0.2c0,0.3,0.1,0.5,0.3,0.7s0.4,0.3,0.7,0.3s0.5-0.1,0.7-0.3c0.2-0.2,0.3-0.4,0.3-0.7c0-0.3-0.1-0.5-0.3-0.7
				s-0.4-0.3-0.7-0.3s-0.5-0.1-0.7-0.3c-0.2-0.2-0.3-0.4-0.3-0.7c0-0.3,0.1-0.5,0.3-0.7s0.5-0.3,0.8-0.3h0.2c0.6,0,1.4,0,2,0h1.8
				c0.1,0,0.2,0,0.2,0.1c0.1,0.1,0.1,0.1,0.1,0.2s0,0.2-0.1,0.2c-0.1,0.1-0.1,0.1-0.2,0.1L678.4,264.2L678.4,264.2z"/>
			<path class="st11" d="M681.1,263.6c0.6,0,1.2,0.2,1.6,0.7c0.4,0.4,0.7,1,0.7,1.6s-0.2,1.2-0.7,1.6c-0.4,0.4-1,0.7-1.6,0.7
				s-1.2-0.2-1.6-0.7c-0.4-0.4-0.7-1-0.7-1.6s0.2-1.2,0.7-1.6C680,263.8,680.5,263.6,681.1,263.6L681.1,263.6z M681.1,264.2
				c-0.4,0-0.8,0.2-1.1,0.5s-0.5,0.7-0.5,1.1s0.2,0.8,0.5,1.1c0.3,0.3,0.7,0.5,1.1,0.5c0.4,0,0.8-0.2,1.1-0.5s0.5-0.7,0.5-1.1
				s-0.2-0.8-0.5-1.1C682,264.4,681.6,264.2,681.1,264.2z"/>
			<path class="st11" d="M685.4,264.2h-1v1.4h1c0.2,0,0.3-0.1,0.5-0.2c0.1-0.1,0.2-0.3,0.2-0.5s-0.1-0.3-0.2-0.5
				C685.7,264.3,685.6,264.2,685.4,264.2L685.4,264.2z M685.6,266.2c-0.1,0-0.2,0-0.2,0h-1v1.6c0,0.1,0,0.2-0.1,0.2
				c-0.1,0.1-0.1,0.1-0.2,0.1c-0.1,0-0.2,0-0.2-0.1c-0.1-0.1-0.1-0.1-0.1-0.2v-3.9c0-0.1,0-0.2,0.1-0.2c0.1-0.1,0.1-0.1,0.2-0.1h1.3
				c0.4,0,0.7,0.1,0.9,0.4c0.3,0.3,0.4,0.6,0.4,0.9c0,0.4-0.1,0.7-0.4,0.9l-0.1,0.1l1,1.7c0,0.1,0,0.1,0,0.2v0.1
				c0,0.1-0.1,0.2-0.2,0.2c-0.1,0-0.1,0-0.2,0h-0.1c-0.1,0-0.2-0.1-0.2-0.1L685.6,266.2z"/>
			<path class="st11" d="M687.6,263.9c0-0.1,0-0.2,0.1-0.2c0.1-0.1,0.1-0.1,0.2-0.1h2.5c0.1,0,0.2,0,0.2,0.1
				c0.1,0.1,0.1,0.1,0.1,0.2s0,0.2-0.1,0.2c-0.1,0.1-0.1,0.1-0.2,0.1h-2.2v0.7h0.9c0.1,0,0.2,0,0.2,0.1c0.1,0.1,0.1,0.1,0.1,0.2
				s0,0.2-0.1,0.2c-0.1,0.1-0.1,0.1-0.2,0.1h-0.9v1.9h2.2c0.1,0,0.2,0,0.2,0.1c0.1,0.1,0.1,0.1,0.1,0.2s0,0.2-0.1,0.2
				c-0.1,0.1-0.1,0.1-0.2,0.1h-2.5c-0.1,0-0.2,0-0.2-0.1c-0.1-0.1-0.1-0.1-0.1-0.2V263.9z"/>
			<path class="st11" d="M655.1,264.6L655.1,264.6c-0.3-0.2-0.6-0.3-1-0.3s-0.8,0.2-1.1,0.5s-0.5,0.7-0.5,1.1s0.2,0.8,0.5,1.1
				c0.3,0.3,0.7,0.5,1.1,0.5c0.4,0,0.8-0.2,1.1-0.5s0.4-0.5,0.4-0.7l0,0h-0.9c-0.1,0-0.2,0-0.2-0.1c-0.1-0.1-0.1-0.1-0.1-0.2
				s0-0.2,0.1-0.2c0.1-0.1,0.1-0.1,0.2-0.1h1.3c0.1,0,1.9,0,2.8,0c0.1,0,0.1,0.2,0.1,0.3c0,0.1,0.1,0.2,0.1,0.3h-2.6l0,0
				c-0.1,0.5-0.3,0.9-0.6,1.2c-0.4,0.4-1,0.7-1.6,0.7s-1.2-0.2-1.6-0.7c-0.4-0.4-0.7-1-0.7-1.6s0.2-1.2,0.7-1.6
				c0.4-0.4,1-0.7,1.6-0.7c0.5,0,1,0.2,1.4,0.5l0,0l0,0c0.1,0.1,0.1,0.1,0.1,0.2s0,0.2-0.1,0.2c-0.1,0.1-0.1,0.1-0.2,0.1
				C655.3,264.7,655.2,264.6,655.1,264.6L655.1,264.6z"/>
			<path class="st11" d="M656.6,267.9c-0.1,0.1-0.2,0.2-0.3,0.2c-0.2,0-0.3-0.1-0.3-0.3c0-0.1,0-0.1,0-0.2l1.9-3.8
				c0,0,0-0.1,0.1-0.1c0.1-0.1,0.1-0.1,0.2-0.1c0.1,0,0.2,0.1,0.3,0.2l1.9,3.8c0,0.1,0.1,0.1,0.1,0.2c0,0.2-0.1,0.3-0.3,0.3
				c-0.1,0-0.2-0.1-0.3-0.2l0,0l-0.3-0.6c-0.6-1.3-0.5-1-0.8-1.7l-0.5-1C657.6,265.7,657.1,266.8,656.6,267.9z"/>
			<path class="st11" d="M661.3,264.6v3.2c0,0.1,0,0.2-0.1,0.2c-0.1,0.1-0.1,0.1-0.2,0.1c-0.1,0-0.2,0-0.2-0.1
				c-0.1-0.1-0.1-0.1-0.1-0.2v-3.9c0-0.1,0-0.2,0.1-0.2c0.1-0.1,0.1-0.1,0.2-0.1c0.1,0,0.2,0,0.2,0.1l0,0l1.6,1.4l1.7-1.5l0,0
				c0.1-0.1,0.1-0.1,0.2-0.1c0.1,0,0.2,0,0.2,0.1c0.1,0.1,0.1,0.1,0.1,0.2v3.9c0,0.1,0,0.2-0.1,0.2c-0.1,0.1-0.1,0.1-0.2,0.1
				c-0.1,0-0.2,0-0.2-0.1c-0.1-0.1-0.1-0.1-0.1-0.2v-3.2l-1.4,1.2c-0.1,0.1-0.1,0.1-0.2,0.1C662.7,265.9,662.2,265.5,661.3,264.6z"
				/>
			<path class="st11" d="M665.5,263.9c0-0.1,0-0.2,0.1-0.2c0.1-0.1,0.1-0.1,0.2-0.1h2.5c0.1,0,0.2,0,0.2,0.1
				c0.1,0.1,0.1,0.1,0.1,0.2s0,0.2-0.1,0.2c-0.1,0.1-0.1,0.1-0.2,0.1h-2.2v0.7h0.9c0.1,0,0.2,0,0.2,0.1c0.1,0.1,0.1,0.1,0.1,0.2
				s0,0.2-0.1,0.2c-0.1,0.1-0.1,0.1-0.2,0.1h-0.9v1.9h2.2c0.1,0,0.2,0,0.2,0.1c0.1,0.1,0.1,0.1,0.1,0.2s0,0.2-0.1,0.2
				c-0.1,0.1-0.1,0.1-0.2,0.1h-2.5c-0.1,0-0.2,0-0.2-0.1c-0.1-0.1-0.1-0.1-0.1-0.2V263.9z"/>
			<path class="st11" d="M668.6,266.5c0-0.1,0-0.2,0.1-0.2c0.1-0.1,0.1-0.1,0.2-0.1c0.1,0,0.2,0,0.2,0.1c0.1,0.1,0.1,0.1,0.1,0.2
				c0,0.3,0.1,0.5,0.3,0.7s0.4,0.3,0.7,0.3s0.5-0.1,0.7-0.3c0.2-0.2,0.3-0.4,0.3-0.7c0-0.3-0.1-0.5-0.3-0.7s-0.4-0.3-0.7-0.3
				s-0.5-0.1-0.7-0.3c-0.2-0.2-0.3-0.4-0.3-0.7c0-0.3,0.1-0.5,0.3-0.7s0.4-0.3,0.7-0.3s0.5,0.1,0.7,0.3l0,0c0.1,0.1,0.1,0.1,0.1,0.2
				s0,0.2-0.1,0.2c-0.1,0.1-0.1,0.1-0.2,0.1c-0.1,0-0.2,0-0.2-0.1l0,0l0,0c-0.1-0.1-0.1-0.1-0.2-0.1c-0.1,0-0.2,0-0.3,0.1
				s-0.1,0.2-0.1,0.3c0,0.1,0,0.2,0.1,0.3c0.1,0.1,0.2,0.1,0.3,0.1c0.4,0,0.8,0.2,1.1,0.5s0.5,0.7,0.5,1.1s-0.2,0.8-0.5,1.1
				c-0.3,0.3-0.7,0.5-1.1,0.5c-0.4,0-0.8-0.2-1.1-0.5C668.7,267.3,668.6,267,668.6,266.5z"/>
		</g>
		<g>
			<path class="st12" d="M683.7,224.7c0.1,0.1,0.2,0.3,0.1,0.5c0,0.2-0.2,0.3-0.3,0.4c-1.5,0.5-3,1-4.5,1.6c-1.5,0.5-3,1-4.5,1.5
				l-5,5.2c-0.1,0.1-0.2,0.1-0.3,0.2c-0.1,0-0.3,0-0.3-0.1l-2.2-2.1c-0.1-0.1-0.2-0.2-0.1-0.4c0-0.1,0.1-0.3,0.1-0.4l5-5.2
				c0.5-1.5,0.9-3,1.4-4.6c0.5-1.5,0.9-3,1.4-4.6c0.1-0.2,0.2-0.3,0.4-0.3s0.3,0,0.4,0.1l2.2,2.1c0.1,0.1,0.2,0.3,0.1,0.5
				c-0.3,0.9-0.6,1.8-0.9,2.8c-0.3,0.9-0.6,1.8-0.9,2.7c0.9-0.3,1.8-0.7,2.7-1s1.8-0.7,2.7-1c0.2-0.1,0.3,0,0.5,0.1L683.7,224.7z"/>
			<path class="st12" d="M662,235.7c-1.4-1.3-2.5-2.6-2.7-4.2c-0.1-1.3,0.1-2.8,1.4-4.3c1.3-1.4,2.9-1.7,4.2-1.6
				c1.7,0.1,2.7,1.1,4.2,2.5L662,235.7L662,235.7z M672.4,231.4l-7.2,7.5c1.4,1.3,2.7,2.4,4.3,2.5c1.3,0.1,2.8-0.2,4.2-1.6
				c1.3-1.4,1.5-3,1.4-4.3C674.9,233.8,673.9,232.8,672.4,231.4L672.4,231.4z M676.7,241.8c2.1-2.5,2.4-5.5,1.9-7.7
				c-0.7-3.4-2.9-4.9-5.7-7.6c-1.2-1.2-2.6-2.6-3.9-3.4c-6.5-3.9-15.1,1.7-13.4,9.7c0.7,3.4,3,5,5.7,7.6c1.2,1.2,2.6,2.6,3.9,3.4
				C669,246.1,673.8,245.3,676.7,241.8z"/>
		</g>
		<path class="st13" d="M651.1,258.1c0.3,0.6,0.6,1.2,0.9,1.7c0.3,0.6,0.6,1.2,1,1.7c0.1,0.1,0,0.3,0,0.4c-0.1,0.1-0.2,0.2-0.3,0.2
			c-0.7,0-1.3,0.1-2,0.1c-0.1,0-0.2-0.1-0.3-0.2c-0.6-1-1.1-2.1-1.7-3.1c-0.4,0.1-0.8,0.2-1.2,0.3c0,0.9,0,1.8-0.1,2.8
			c0,0.1,0,0.2-0.1,0.3c-0.1,0.1-0.2,0.1-0.3,0.1c-0.6,0-1.2,0-1.8,0.1c-0.1,0-0.2,0-0.2-0.1c-0.1-0.1-0.1-0.2-0.1-0.3
			c0-2,0.1-4,0.2-6.1c0.1-2,0.1-4,0.1-6.1c0-0.1,0-0.2,0.1-0.3s0.2-0.1,0.3-0.1c1.2-0.1,2.3-0.1,3.5-0.2c0.5,0,1,0,1.5,0.2
			s0.9,0.4,1.3,0.7c0.4,0.3,0.7,0.6,1,1.1c0.3,0.4,0.5,0.9,0.6,1.4s0.2,1,0.1,1.5c-0.1,0.5-0.2,1-0.4,1.5s-0.5,0.9-0.8,1.3
			C651.9,257.5,651.5,257.9,651.1,258.1L651.1,258.1z M649.3,256.1c0.4-0.1,0.7-0.3,0.9-0.5s0.4-0.5,0.5-0.8s0.1-0.6,0.1-0.9
			c0-0.3-0.1-0.6-0.3-0.8c-0.1-0.3-0.4-0.5-0.6-0.6c-0.3-0.2-0.6-0.2-1-0.2c-0.5,0-0.9,0-1.4,0.1c0,0.7,0,1.4,0,2.2
			c0,0.7,0,1.4,0,2.2c0.3-0.1,0.6-0.2,0.9-0.2C648.7,256.2,649,256.1,649.3,256.1z"/>
		<path class="st13" d="M663.4,257.1c0,0.7-0.1,1.3-0.4,1.9c-0.3,0.6-0.6,1.1-1,1.6s-0.9,0.8-1.5,1.1c-0.6,0.3-1.2,0.4-1.8,0.5
			c-0.6,0-1.2-0.1-1.8-0.3c-0.6-0.2-1-0.6-1.5-1c-0.4-0.4-0.7-0.9-1-1.5c-0.2-0.6-0.3-1.2-0.3-1.9c0-1.3,0.1-2.6,0.1-4
			c0-1.3,0.1-2.6,0.1-4c0-0.1,0-0.2,0.1-0.3s0.2-0.1,0.3-0.1c0.8,0,1.5-0.1,2.3-0.1c0.1,0,0.2,0,0.3,0.1s0.1,0.2,0.1,0.3
			c0,1.3-0.1,2.7-0.1,4s-0.1,2.6-0.1,4c0,0.2,0,0.5,0.1,0.7s0.2,0.4,0.3,0.5s0.3,0.3,0.5,0.3c0.2,0.1,0.4,0.1,0.6,0.1
			c0.2,0,0.4-0.1,0.6-0.2c0.2-0.1,0.4-0.2,0.5-0.4c0.2-0.2,0.3-0.3,0.4-0.6c0.1-0.2,0.1-0.4,0.1-0.7c0-1.3,0.1-2.7,0.1-4
			s0.1-2.7,0.1-4c0-0.1,0-0.2,0.1-0.3s0.2-0.1,0.3-0.1c0.8,0,1.5-0.1,2.3-0.1c0.1,0,0.2,0,0.3,0.1s0.1,0.2,0.1,0.3
			c0,1.3-0.1,2.7-0.1,4C663.4,254.5,663.4,255.8,663.4,257.1z"/>
		<path class="st12" d="M664.8,261.5c-0.1,0-0.2,0-0.3-0.1s-0.1-0.2-0.1-0.3c0-2,0.1-4.1,0.1-6.1s0.1-4.1,0.1-6.1
			c0-0.1,0-0.2,0.1-0.3s0.2-0.1,0.3-0.1c1.2,0,2.4-0.1,3.6-0.1c0.9,0,1.7,0.1,2.4,0.4c0.8,0.3,1.4,0.7,2,1.3s1,1.2,1.3,2
			s0.5,1.6,0.4,2.5c0,0.9-0.2,1.7-0.5,2.5s-0.8,1.5-1.4,2.1c-0.6,0.6-1.2,1.1-2,1.5s-1.6,0.6-2.4,0.6
			C667.2,261.4,666,261.4,664.8,261.5L664.8,261.5z M670.5,251.6c-0.2-0.1-0.5-0.3-0.7-0.3c-0.2-0.1-0.5-0.1-0.7-0.1s-0.5,0-0.7,0
			s-0.5,0-0.8,0c0,1.2,0,2.5-0.1,3.7c0,1.2,0,2.5-0.1,3.7c0.4,0,0.7,0,1.1,0c0.5,0,1.1-0.2,1.5-0.4c0.5-0.3,0.9-0.6,1.2-1
			s0.6-0.9,0.7-1.4c0.2-0.5,0.2-1.1,0.1-1.6c-0.1-0.5-0.2-1-0.5-1.5C671.3,252.2,671,251.8,670.5,251.6z"/>
		<path class="st13" d="M676,261.3c-0.1,0-0.2,0-0.2-0.1c-0.1-0.1-0.1-0.2-0.1-0.3c0-2,0.1-4.1,0.1-6.1s0.1-4.1,0.1-6.1
			c0-0.1,0-0.2,0.1-0.3s0.2-0.1,0.3-0.1c1.2-0.1,2.4-0.1,3.6-0.2c0.9,0,1.7,0.1,2.4,0.4c0.8,0.3,1.4,0.7,2,1.3s1,1.2,1.3,2
			s0.5,1.6,0.5,2.5s-0.2,1.8-0.5,2.6s-0.8,1.5-1.4,2.1c-0.6,0.6-1.2,1.1-2,1.5s-1.6,0.6-2.4,0.6C678.5,261.2,677.2,261.2,676,261.3
			L676,261.3z M681.7,251.3c-0.2-0.2-0.5-0.3-0.7-0.3c-0.2-0.1-0.5-0.1-0.7-0.1s-0.5,0-0.7,0c-0.3,0-0.5,0-0.8,0
			c0,1.2,0,2.5-0.1,3.7c0,1.2,0,2.5-0.1,3.7c0.4,0,0.7,0,1.1,0c0.5,0,1.1-0.2,1.5-0.4c0.5-0.3,0.9-0.6,1.2-1s0.6-0.9,0.7-1.4
			c0.2-0.5,0.2-1.1,0.1-1.6c-0.1-0.5-0.2-1-0.5-1.5C682.5,251.9,682.2,251.6,681.7,251.3z"/>
		<path class="st13" d="M694,247.4c0.1,0,0.2,0,0.3,0.2c0.1,0.1,0.1,0.2,0,0.4c-0.6,1.1-1.1,2.2-1.7,3.4c-0.6,1.1-1.1,2.2-1.7,3.4
			c0,0.9,0,1.9,0,2.8s0,1.9,0,2.8c0,0.1,0,0.2-0.1,0.3c-0.1,0.1-0.2,0.1-0.3,0.1c-0.8,0-1.5,0.1-2.3,0.1c-0.1,0-0.2,0-0.3-0.1
			s-0.1-0.2-0.1-0.3c0-0.9,0-1.9,0-2.8s0-1.9,0-2.8c-0.5-1.1-1.1-2.1-1.6-3.2c-0.5-1.1-1.1-2.1-1.6-3.2c-0.1-0.1,0-0.3,0-0.4
			c0.1-0.1,0.2-0.2,0.3-0.2c0.8,0,1.5-0.1,2.3-0.1c0.1,0,0.2,0.1,0.3,0.2c0.3,0.7,0.6,1.3,0.9,2c0.3,0.7,0.6,1.3,0.9,2
			c0.3-0.7,0.7-1.4,1-2.1c0.3-0.7,0.7-1.4,1-2.1c0.1-0.1,0.2-0.2,0.3-0.2C692.5,247.5,693.2,247.4,694,247.4z"/>
		<path class="st12" d="M676.7,263.9v3.6c0,0.1,0,0.2-0.1,0.2c-0.1,0.1-0.1,0.1-0.2,0.1c-0.1,0-0.2,0-0.2-0.1
			c-0.1-0.1-0.1-0.1-0.1-0.2v-3.6h-2.4c-0.1,0-0.3,0-0.3,0.1c-0.1,0.1-0.1,0.2-0.1,0.3c0,0.1,0,0.2,0.1,0.3c0.1,0.1,0.2,0.1,0.3,0.1
			c0.4,0,0.8,0.2,1.1,0.5s0.5,0.7,0.5,1.1s-0.2,0.8-0.5,1.1c-0.3,0.3-0.7,0.5-1.1,0.5c-0.4,0-0.8-0.2-1.1-0.5s-0.5-0.7-0.5-1.1
			c0-0.1,0-0.2,0.1-0.2c0.1-0.1,0.1-0.1,0.2-0.1c0.1,0,0.2,0,0.2,0.1c0.1,0.1,0.1,0.1,0.1,0.2c0,0.3,0.1,0.5,0.3,0.7
			s0.4,0.3,0.7,0.3s0.5-0.1,0.7-0.3c0.2-0.2,0.3-0.4,0.3-0.7s-0.1-0.5-0.3-0.7s-0.4-0.3-0.7-0.3s-0.5-0.1-0.7-0.3
			c-0.2-0.2-0.3-0.4-0.3-0.7c0-0.3,0.1-0.5,0.3-0.7s0.5-0.3,0.8-0.3h0.2c0.6,0,1.4,0,2,0h1.8c0.1,0,0.2,0,0.2,0.1
			c0.1,0.1,0.1,0.1,0.1,0.2s0,0.2-0.1,0.2c-0.1,0.1-0.1,0.1-0.2,0.1L676.7,263.9L676.7,263.9z"/>
		<path class="st12" d="M679.5,263.2c0.6,0,1.2,0.2,1.6,0.7c0.4,0.4,0.7,1,0.7,1.6s-0.2,1.2-0.7,1.6c-0.4,0.4-1,0.7-1.6,0.7
			s-1.2-0.2-1.6-0.7c-0.4-0.4-0.7-1-0.7-1.6s0.2-1.2,0.7-1.6C678.3,263.5,678.8,263.2,679.5,263.2L679.5,263.2z M679.5,263.9
			c-0.4,0-0.8,0.2-1.1,0.5s-0.5,0.7-0.5,1.1s0.2,0.8,0.5,1.1c0.3,0.3,0.7,0.5,1.1,0.5c0.4,0,0.8-0.2,1.1-0.5s0.5-0.7,0.5-1.1
			s-0.2-0.8-0.5-1.1C680.3,264,679.9,263.9,679.5,263.9z"/>
		<path class="st12" d="M683.7,263.9h-1v1.4h1c0.2,0,0.3-0.1,0.5-0.2c0.1-0.1,0.2-0.3,0.2-0.5s-0.1-0.3-0.2-0.5
			C684,263.9,683.9,263.9,683.7,263.9L683.7,263.9z M683.9,265.8c-0.1,0-0.2,0-0.2,0h-1v1.6c0,0.1,0,0.2-0.1,0.2
			c-0.1,0.1-0.1,0.1-0.2,0.1s-0.2,0-0.2-0.1c-0.1-0.1-0.1-0.1-0.1-0.2v-3.9c0-0.1,0-0.2,0.1-0.2c0.1-0.1,0.1-0.1,0.2-0.1h1.3
			c0.4,0,0.7,0.1,0.9,0.4c0.3,0.3,0.4,0.6,0.4,0.9c0,0.4-0.1,0.7-0.4,0.9l-0.1,0.1l1,1.7c0,0.1,0,0.1,0,0.2v0.1
			c0,0.1-0.1,0.2-0.2,0.2c-0.1,0-0.1,0-0.2,0H685c-0.1,0-0.2-0.1-0.2-0.1L683.9,265.8z"/>
		<path class="st12" d="M685.9,263.6c0-0.1,0-0.2,0.1-0.2c0.1-0.1,0.1-0.1,0.2-0.1h2.5c0.1,0,0.2,0,0.2,0.1c0.1,0.1,0.1,0.1,0.1,0.2
			s0,0.2-0.1,0.2c-0.1,0.1-0.1,0.1-0.2,0.1h-2.2v0.7h0.9c0.1,0,0.2,0,0.2,0.1c0.1,0.1,0.1,0.1,0.1,0.2s0,0.2-0.1,0.2
			c-0.1,0.1-0.1,0.1-0.2,0.1h-0.9v1.9h2.2c0.1,0,0.2,0,0.2,0.1c0.1,0.1,0.1,0.1,0.1,0.2s0,0.2-0.1,0.2c-0.1,0.1-0.1,0.1-0.2,0.1
			h-2.5c-0.1,0-0.2,0-0.2-0.1c-0.1-0.1-0.1-0.1-0.1-0.2V263.6z"/>
		<path class="st12" d="M653.4,264.2L653.4,264.2c-0.3-0.2-0.6-0.3-1-0.3s-0.8,0.2-1.1,0.5s-0.5,0.7-0.5,1.1s0.2,0.8,0.5,1.1
			c0.3,0.3,0.7,0.5,1.1,0.5c0.4,0,0.8-0.2,1.1-0.5s0.4-0.5,0.4-0.7l0,0H653c-0.1,0-0.2,0-0.2-0.1c-0.1-0.1-0.1-0.1-0.1-0.2
			s0-0.2,0.1-0.2c0.1-0.1,0.1-0.1,0.2-0.1h1.3c0.1,0,1.9,0,2.8,0c0.1,0,0.1,0.2,0.1,0.3c0,0.1,0.1,0.2,0.1,0.3h-2.6l0,0
			c-0.1,0.5-0.3,0.9-0.6,1.2c-0.4,0.4-1,0.7-1.6,0.7s-1.2-0.2-1.6-0.7c-0.4-0.4-0.7-1-0.7-1.6s0.2-1.2,0.7-1.6
			c0.4-0.4,1-0.7,1.6-0.7c0.5,0,1,0.2,1.4,0.5l0,0l0,0c0.1,0.1,0.1,0.1,0.1,0.2s0,0.2-0.1,0.2c-0.1,0.1-0.1,0.1-0.2,0.1
			C653.6,264.3,653.5,264.3,653.4,264.2L653.4,264.2z"/>
		<path class="st12" d="M654.9,267.6c-0.1,0.1-0.2,0.2-0.3,0.2c-0.2,0-0.3-0.1-0.3-0.3c0-0.1,0-0.1,0-0.2l1.9-3.8c0,0,0-0.1,0.1-0.1
			c0.1-0.1,0.1-0.1,0.2-0.1c0.1,0,0.2,0.1,0.3,0.2l1.9,3.8c0,0.1,0.1,0.1,0.1,0.2c0,0.2-0.1,0.3-0.3,0.3c-0.1,0-0.2-0.1-0.3-0.2l0,0
			l-0.3-0.6c-0.6-1.3-0.5-1-0.8-1.7l-0.5-1C656,265.4,655.4,266.4,654.9,267.6z"/>
		<path class="st12" d="M659.6,264.3v3.2c0,0.1,0,0.2-0.1,0.2c-0.1,0.1-0.1,0.1-0.2,0.1c-0.1,0-0.2,0-0.2-0.1
			c-0.1-0.1-0.1-0.1-0.1-0.2v-3.9c0-0.1,0-0.2,0.1-0.2c0.1-0.1,0.1-0.1,0.2-0.1c0.1,0,0.2,0,0.2,0.1l0,0l1.6,1.4l1.7-1.5l0,0
			c0.1-0.1,0.1-0.1,0.2-0.1c0.1,0,0.2,0,0.2,0.1c0.1,0.1,0.1,0.1,0.1,0.2v3.9c0,0.1,0,0.2-0.1,0.2c-0.1,0.1-0.1,0.1-0.2,0.1
			c-0.1,0-0.2,0-0.2-0.1c-0.1-0.1-0.1-0.1-0.1-0.2v-3.2l-1.4,1.2c-0.1,0.1-0.1,0.1-0.2,0.1C661.1,265.5,660.5,265.1,659.6,264.3z"/>
		<path class="st12" d="M663.8,263.6c0-0.1,0-0.2,0.1-0.2c0.1-0.1,0.1-0.1,0.2-0.1h2.5c0.1,0,0.2,0,0.2,0.1c0.1,0.1,0.1,0.1,0.1,0.2
			s0,0.2-0.1,0.2c-0.1,0.1-0.1,0.1-0.2,0.1h-2.2v0.7h0.9c0.1,0,0.2,0,0.2,0.1c0.1,0.1,0.1,0.1,0.1,0.2s0,0.2-0.1,0.2
			c-0.1,0.1-0.1,0.1-0.2,0.1h-0.9v1.9h2.2c0.1,0,0.2,0,0.2,0.1c0.1,0.1,0.1,0.1,0.1,0.2s0,0.2-0.1,0.2c-0.1,0.1-0.1,0.1-0.2,0.1
			h-2.5c-0.1,0-0.2,0-0.2-0.1c-0.1-0.1-0.1-0.1-0.1-0.2V263.6z"/>
		<path class="st12" d="M666.9,266.2c0-0.1,0-0.2,0.1-0.2c0.1-0.1,0.1-0.1,0.2-0.1c0.1,0,0.2,0,0.2,0.1c0.1,0.1,0.1,0.1,0.1,0.2
			c0,0.3,0.1,0.5,0.3,0.7s0.4,0.3,0.7,0.3s0.5-0.1,0.7-0.3c0.2-0.2,0.3-0.4,0.3-0.7c0-0.3-0.1-0.5-0.3-0.7s-0.4-0.3-0.7-0.3
			s-0.5-0.1-0.7-0.3c-0.2-0.2-0.3-0.4-0.3-0.7c0-0.3,0.1-0.5,0.3-0.7s0.4-0.3,0.7-0.3s0.5,0.1,0.7,0.3l0,0c0.1,0.1,0.1,0.1,0.1,0.2
			s0,0.2-0.1,0.2c-0.1,0.1-0.1,0.1-0.2,0.1c-0.1,0-0.2,0-0.2-0.1l0,0l0,0c-0.1-0.1-0.1-0.1-0.2-0.1c-0.1,0-0.2,0-0.3,0.1
			s-0.1,0.2-0.1,0.3c0,0.1,0,0.2,0.1,0.3c0.1,0.1,0.2,0.1,0.3,0.1c0.4,0,0.8,0.2,1.1,0.5s0.5,0.7,0.5,1.1s-0.2,0.8-0.5,1.1
			c-0.3,0.3-0.7,0.5-1.1,0.5c-0.4,0-0.8-0.2-1.1-0.5C667,267,666.9,266.6,666.9,266.2z"/>
	</g>
	<g>
		<g>
			<g>
				<path class="st11" d="M423.7,158.1c0.3,0.3,0.4,0.6,0.3,0.9c-0.1,0.4-0.3,0.6-0.7,0.8c-3.1,1.1-6.3,2.2-9.4,3.3
					s-6.3,2.1-9.4,3.2l-10.4,10.9c-0.2,0.2-0.4,0.3-0.7,0.3c-0.3,0-0.5-0.1-0.7-0.2l-4.5-4.3c-0.2-0.2-0.3-0.5-0.3-0.7
					c0-0.3,0.1-0.5,0.3-0.7l10.4-10.9c1-3.2,1.9-6.4,2.9-9.5c0.9-3.2,1.9-6.3,2.8-9.5c0.1-0.4,0.4-0.6,0.8-0.7
					c0.4-0.1,0.7,0,0.9,0.2l4.5,4.3c0.3,0.3,0.4,0.6,0.3,1c-0.6,1.9-1.3,3.8-1.9,5.8c-0.6,1.9-1.3,3.8-1.9,5.7
					c1.9-0.7,3.8-1.4,5.7-2.1c1.9-0.7,3.8-1.4,5.6-2.2c0.4-0.2,0.7-0.1,1,0.2L423.7,158.1z"/>
				<path class="st11" d="M378.4,181c-2.9-2.8-5.3-5.4-5.6-8.7c-0.3-2.7,0.2-5.9,3-8.9c2.8-2.9,6.1-3.5,8.8-3.3
					c3.6,0.2,5.7,2.2,8.9,5.2L378.4,181L378.4,181z M400.2,171.9l-15,15.6c2.9,2.8,5.6,5.1,8.9,5.3c2.7,0.2,5.9-0.4,8.8-3.4
					c2.8-2.9,3.2-6.3,2.9-8.9C405.4,177,403.3,175,400.2,171.9L400.2,171.9z M409.3,193.8c4.4-5.3,4.9-11.6,3.9-16.1
					c-1.5-7-6.1-10.3-11.9-15.8c-2.5-2.4-5.3-5.5-8.2-7.2c-13.6-8.1-31.6,3.6-28,20.4c1.5,7,6.2,10.4,11.9,15.9
					c2.5,2.4,5.4,5.5,8.2,7.2C393.1,202.6,403.2,201,409.3,193.8z"/>
			</g>
			<path class="st11" d="M355.6,227.9c0.7,1.2,1.3,2.4,2,3.6c0.7,1.2,1.3,2.4,2,3.6c0.1,0.3,0.1,0.5,0,0.8s-0.4,0.4-0.7,0.4
				c-1.4,0.1-2.8,0.1-4.1,0.2c-0.3,0-0.5-0.1-0.7-0.4c-1.2-2.2-2.4-4.4-3.5-6.6c-0.9,0.2-1.7,0.5-2.6,0.7c0,1.9-0.1,3.8-0.1,5.7
				c0,0.2-0.1,0.4-0.2,0.6c-0.1,0.2-0.3,0.2-0.5,0.3c-1.2,0.1-2.5,0.1-3.7,0.2c-0.2,0-0.4-0.1-0.5-0.2c-0.1-0.1-0.2-0.3-0.2-0.6
				c0.1-4.2,0.2-8.5,0.3-12.7c0.1-4.2,0.2-8.5,0.3-12.7c0-0.2,0.1-0.4,0.2-0.5c0.2-0.2,0.3-0.3,0.5-0.3c2.4-0.1,4.9-0.2,7.3-0.3
				c1.1,0,2.1,0.1,3.1,0.4c1,0.3,1.9,0.8,2.7,1.4c0.8,0.6,1.5,1.3,2,2.2c0.6,0.9,1,1.8,1.2,2.9c0.2,1.1,0.3,2.1,0.2,3.2
				c-0.1,1.1-0.4,2.1-0.8,3.1s-1,1.9-1.7,2.8C357.4,226.6,356.5,227.3,355.6,227.9L355.6,227.9z M351.8,223.5c0.8-0.2,1.4-0.6,1.9-1
				c0.5-0.5,0.9-1,1.1-1.7c0.2-0.6,0.3-1.3,0.2-1.9c0-0.7-0.2-1.2-0.5-1.8c-0.3-0.5-0.8-1-1.3-1.3c-0.6-0.3-1.3-0.5-2-0.4
				c-1,0-1.9,0.1-2.9,0.1c0,1.5-0.1,3-0.1,4.5s-0.1,3-0.1,4.5c0.7-0.2,1.3-0.3,1.9-0.5C350.6,223.9,351.2,223.7,351.8,223.5z"/>
			<path class="st11" d="M381.3,225.8c0,1.4-0.3,2.7-0.8,4c-0.5,1.2-1.3,2.3-2.2,3.3c-0.9,1-1.9,1.7-3.1,2.3s-2.4,0.9-3.8,0.9
				c-1.3,0.1-2.6-0.2-3.8-0.6c-1.2-0.5-2.2-1.2-3-2c-0.8-0.9-1.5-1.9-2-3.1c-0.5-1.2-0.7-2.5-0.7-3.9c0.1-2.8,0.1-5.5,0.2-8.3
				s0.1-5.5,0.2-8.3c0-0.2,0.1-0.4,0.2-0.6c0.2-0.2,0.3-0.3,0.5-0.3c1.6-0.1,3.1-0.1,4.7-0.2c0.2,0,0.4,0.1,0.5,0.2
				c0.2,0.1,0.2,0.3,0.2,0.6c-0.1,2.8-0.1,5.5-0.2,8.3s-0.1,5.5-0.2,8.3c0,0.5,0.1,1,0.2,1.4c0.2,0.4,0.4,0.8,0.7,1.1
				c0.3,0.3,0.7,0.5,1.1,0.7s0.8,0.2,1.3,0.2s0.9-0.1,1.4-0.3c0.4-0.2,0.8-0.5,1.1-0.8c0.3-0.3,0.6-0.7,0.8-1.2
				c0.2-0.4,0.3-0.9,0.3-1.4c0.1-2.8,0.1-5.5,0.2-8.3s0.1-5.5,0.2-8.3c0-0.2,0.1-0.4,0.2-0.6c0.2-0.2,0.3-0.3,0.5-0.3
				c1.6-0.1,3.1-0.1,4.7-0.2c0.2,0,0.4,0.1,0.5,0.2c0.2,0.1,0.2,0.3,0.2,0.6c-0.1,2.8-0.1,5.6-0.2,8.3
				C381.4,220.2,381.4,223,381.3,225.8z"/>
			<path class="st11" d="M384.4,234.9c-0.2,0-0.4-0.1-0.5-0.2c-0.2-0.2-0.2-0.3-0.2-0.6c0.1-4.3,0.1-8.6,0.2-12.8
				c0.1-4.3,0.2-8.5,0.2-12.8c0-0.2,0.1-0.4,0.2-0.6c0.1-0.2,0.3-0.3,0.5-0.3c2.5-0.1,5-0.2,7.6-0.3c1.8-0.1,3.5,0.2,5,0.9
				c1.6,0.6,2.9,1.6,4.1,2.7c1.2,1.2,2.1,2.6,2.7,4.2c0.7,1.6,1,3.4,0.9,5.2c0,1.9-0.4,3.6-1.1,5.3s-1.7,3.2-2.9,4.5
				c-1.2,1.3-2.6,2.3-4.2,3.1s-3.3,1.2-5.1,1.3C389.4,234.7,386.9,234.8,384.4,234.9L384.4,234.9z M396.3,214.1
				c-0.5-0.3-1-0.5-1.5-0.7c-0.5-0.1-1-0.2-1.5-0.3c-0.5,0-1-0.1-1.6,0c-0.5,0-1,0-1.6,0.1c0,2.6,1.9,25.5,1.9,28.1
				c-0.1,2.6-2.1-15.1-2.2-12.5c0.8,0,1.5-0.1,2.2-0.1c1.1-0.1,2.2-0.3,3.2-0.9c1-0.5,1.9-1.2,2.5-2.1c0.7-0.9,1.2-1.8,1.5-2.9
				c0.3-1.1,0.4-2.2,0.3-3.4c-0.1-1.1-0.5-2.2-1.1-3.1C397.9,215.4,397.2,214.7,396.3,214.1z"/>
			<path class="st11" d="M407.8,234.4c-0.2,0-0.4-0.1-0.5-0.2c-0.1-0.1-0.2-0.3-0.2-0.6c0.1-4.3,0.1-8.6,0.2-12.8
				c0.1-4.3,0.1-8.6,0.2-12.8c0-0.2,0.1-0.4,0.2-0.6c0.2-0.2,0.3-0.3,0.5-0.3c2.5-0.1,5-0.2,7.6-0.3c1.8-0.1,3.5,0.2,5,0.8
				c1.6,0.6,2.9,1.6,4.1,2.7c1.2,1.2,2.1,2.6,2.7,4.2c0.7,1.6,1,3.4,0.9,5.3c0,1.9-0.4,3.7-1.1,5.4s-1.7,3.2-2.9,4.5
				c-1.2,1.3-2.6,2.3-4.2,3.1s-3.3,1.2-5.1,1.3C412.8,234.2,410.3,234.3,407.8,234.4L407.8,234.4z M419.7,213.6
				c-0.5-0.3-1-0.5-1.5-0.7c-0.5-0.1-1-0.2-1.5-0.3c-0.5,0-1,0-1.5,0s-1.1,0-1.6,0.1c0,2.6-0.1,5.2-0.1,7.8s-0.1,5.2-0.1,7.8
				c0.7,0,1.5-0.1,2.2-0.1c1.1,0,2.2-0.3,3.2-0.9c1-0.5,1.8-1.2,2.5-2.1c0.7-0.9,1.2-1.9,1.5-3s0.4-2.2,0.3-3.4
				c-0.1-1.1-0.5-2.2-1.1-3.1C421.4,214.9,420.6,214.1,419.7,213.6z"/>
			<path class="st11" d="M445.2,205.4c0.3,0,0.5,0.1,0.7,0.3c0.1,0.2,0.1,0.5,0,0.8c-1.2,2.4-2.3,4.7-3.5,7s-2.4,4.7-3.6,7
				c0,1.9,0,3.9-0.1,5.8c0,1.9-0.1,3.9-0.1,5.8c0,0.2-0.1,0.4-0.2,0.6c-0.2,0.2-0.3,0.3-0.5,0.3c-1.6,0.1-3.2,0.1-4.7,0.2
				c-0.2,0-0.4-0.1-0.6-0.2c-0.1-0.2-0.2-0.3-0.2-0.6c0-1.9,0.1-3.9,0.1-5.8c0-1.9,0.1-3.9,0.1-5.8c-1.1-2.2-2.2-4.5-3.3-6.7
				c-1.1-2.2-2.2-4.4-3.4-6.7c-0.1-0.3-0.1-0.5,0.1-0.8c0.1-0.3,0.4-0.4,0.6-0.4c1.6-0.1,3.1-0.1,4.7-0.2c0.3,0,0.5,0.1,0.7,0.4
				c0.7,1.4,1.3,2.8,1.9,4.1c0.6,1.4,1.3,2.8,1.9,4.1c0.7-1.4,1.4-2.9,2-4.3c0.7-1.4,1.4-2.9,2-4.3c0.1-0.3,0.4-0.4,0.7-0.5
				C442.1,205.6,443.7,205.5,445.2,205.4z"/>
			<path class="st11" d="M409.3,239.8v7.4c0,0.2-0.1,0.3-0.2,0.5c-0.1,0.1-0.3,0.2-0.5,0.2s-0.3-0.1-0.5-0.2
				c-0.1-0.1-0.2-0.3-0.2-0.5v-7.4h-5.1c-0.3,0-0.5,0-0.7,0.2c-0.1,0.1-0.2,0.3-0.2,0.5s0.1,0.4,0.2,0.5s0.3,0.2,0.5,0.2
				c0.9,0,1.7,0.3,2.3,1c0.6,0.6,1,1.4,1,2.3c0,0.9-0.3,1.7-1,2.3c-0.6,0.6-1.4,1-2.3,1s-1.7-0.3-2.3-1c-0.6-0.6-1-1.4-1-2.3
				c0-0.2,0.1-0.3,0.2-0.5c0.1-0.1,0.3-0.2,0.5-0.2s0.3,0.1,0.5,0.2c0.1,0.1,0.2,0.3,0.2,0.5c0,0.5,0.2,1,0.6,1.4s0.8,0.6,1.4,0.6
				c0.5,0,1-0.2,1.4-0.6c0.4-0.4,0.6-0.8,0.6-1.4c0-0.5-0.2-1-0.6-1.4s-0.8-0.6-1.4-0.6s-1.1-0.2-1.5-0.6c-0.4-0.4-0.6-0.9-0.6-1.5
				s0.2-1.1,0.6-1.5s1-0.6,1.6-0.6h0.3c1.2,0,2.9,0,4.3,0h3.8c0.2,0,0.3,0.1,0.5,0.2c0.1,0.1,0.2,0.3,0.2,0.5s-0.1,0.3-0.2,0.5
				c-0.1,0.1-0.3,0.2-0.5,0.2h-1.9V239.8z"/>
			<path class="st11" d="M414.9,238.5c1.3,0,2.4,0.5,3.3,1.4s1.4,2,1.4,3.3s-0.5,2.4-1.4,3.3c-0.9,0.9-2,1.4-3.3,1.4
				s-2.4-0.5-3.3-1.4s-1.4-2-1.4-3.3s0.5-2.4,1.4-3.3C412.5,239,413.6,238.5,414.9,238.5L414.9,238.5z M414.9,239.9
				c-0.9,0-1.7,0.3-2.4,1c-0.7,0.7-1,1.4-1,2.4c0,0.9,0.3,1.7,1,2.4s1.4,1,2.4,1c0.9,0,1.7-0.3,2.4-1c0.7-0.7,1-1.4,1-2.4
				c0-0.9-0.3-1.7-1-2.4C416.7,240.2,415.9,239.9,414.9,239.9z"/>
			<path class="st11" d="M423.7,239.8h-2v2.8h2c0.4,0,0.7-0.1,1-0.4c0.3-0.3,0.4-0.6,0.4-1s-0.1-0.7-0.4-1
				C424.5,240,424.1,239.8,423.7,239.8L423.7,239.8z M424.2,244c-0.2,0-0.3,0-0.5,0h-2v3.3c0,0.2-0.1,0.3-0.2,0.5
				c-0.1,0.1-0.3,0.2-0.5,0.2s-0.3-0.1-0.5-0.2c-0.1-0.1-0.2-0.3-0.2-0.5v-8.1c0-0.2,0.1-0.3,0.2-0.5c0.1-0.1,0.3-0.2,0.5-0.2h2.7
				c0.8,0,1.4,0.3,1.9,0.8s0.8,1.2,0.8,1.9c0,0.8-0.3,1.4-0.8,1.9c-0.1,0.1-0.1,0.1-0.2,0.2l2,3.5c0.1,0.1,0.1,0.2,0.1,0.3
				s0,0.1,0,0.2c0,0.2-0.2,0.3-0.3,0.4c-0.1,0.1-0.2,0.1-0.3,0.1c-0.1,0-0.1,0-0.2,0c-0.2,0-0.3-0.1-0.4-0.3L424.2,244z"/>
			<path class="st11" d="M428.4,239.2c0-0.2,0.1-0.3,0.2-0.5c0.1-0.1,0.3-0.2,0.5-0.2h5.2c0.2,0,0.3,0.1,0.5,0.2
				c0.1,0.1,0.2,0.3,0.2,0.5s-0.1,0.3-0.2,0.5c-0.1,0.1-0.3,0.2-0.5,0.2h-4.5v1.5h2c0.2,0,0.3,0.1,0.5,0.2c0.1,0.1,0.2,0.3,0.2,0.5
				s-0.1,0.3-0.2,0.5c-0.1,0.1-0.3,0.2-0.5,0.2h-2v3.9h4.5c0.2,0,0.3,0.1,0.5,0.2c0.1,0.1,0.2,0.3,0.2,0.5s-0.1,0.3-0.2,0.5
				c-0.1,0.1-0.3,0.2-0.5,0.2H429c-0.2,0-0.3-0.1-0.5-0.2c-0.1-0.1-0.2-0.3-0.2-0.5v-8.2H428.4z"/>
			<path class="st11" d="M360.5,240.5L360.5,240.5c-0.6-0.4-1.3-0.7-2-0.7c-0.9,0-1.7,0.3-2.4,1c-0.7,0.7-1,1.5-1,2.4s0.3,1.7,1,2.4
				s1.5,1,2.4,1s1.7-0.3,2.4-1c0.6-0.6,0.9-1.1,0.9-1.5V244h-1.9c-0.2,0-0.3-0.1-0.5-0.2c-0.1-0.1-0.2-0.3-0.2-0.5s0.1-0.3,0.2-0.5
				c0.1-0.1,0.3-0.2,0.5-0.2h2.6c0.2,0,4,0,5.8,0c0.2,0,0.2,0.5,0.2,0.7s0.2,0.5,0.1,0.7h-5.5l0,0c-0.1,0.9-0.6,1.8-1.3,2.5
				c-0.9,0.9-2,1.4-3.3,1.4s-2.4-0.5-3.3-1.4s-1.4-2-1.4-3.3s0.5-2.4,1.4-3.3c0.9-0.9,2-1.4,3.3-1.4c1.1,0,2.1,0.4,3,1.1l0,0l0,0
				c0.1,0.1,0.2,0.3,0.2,0.5s-0.1,0.3-0.2,0.5c-0.1,0.1-0.3,0.2-0.5,0.2C360.8,240.8,360.7,240.7,360.5,240.5
				C360.6,240.6,360.5,240.5,360.5,240.5z"/>
			<path class="st11" d="M363.6,247.6c-0.1,0.2-0.3,0.4-0.6,0.4c-0.4,0-0.7-0.3-0.7-0.7c0-0.1,0-0.2,0.1-0.3l3.9-8
				c0-0.1,0.1-0.1,0.1-0.2c0.1-0.1,0.3-0.2,0.5-0.2s0.5,0.1,0.6,0.4l3.9,8c0.1,0.1,0.1,0.2,0.1,0.4c0,0.4-0.3,0.7-0.7,0.7
				c-0.3,0-0.5-0.1-0.6-0.4l0,0l-0.6-1.2c-1.3-2.8-1-2.2-1.7-3.6l-1-2.1C365.8,243,364.8,245.2,363.6,247.6z"/>
			<path class="st11" d="M373.4,240.7v6.6c0,0.2-0.1,0.3-0.2,0.5c-0.1,0.1-0.3,0.2-0.5,0.2s-0.3-0.1-0.5-0.2
				c-0.1-0.1-0.2-0.3-0.2-0.5v-8.1c0-0.2,0.1-0.3,0.2-0.5c0.1-0.1,0.3-0.2,0.5-0.2s0.3,0.1,0.5,0.2c0,0,0,0,0.1,0.1l3.4,3l3.5-3.1
				l0,0c0.1-0.1,0.3-0.2,0.4-0.2c0.2,0,0.3,0.1,0.5,0.2c0.1,0.1,0.2,0.3,0.2,0.5v8.1c0,0.2-0.1,0.3-0.2,0.5
				c-0.1,0.1-0.3,0.2-0.5,0.2s-0.3-0.1-0.5-0.2c-0.1-0.1-0.2-0.3-0.2-0.5v-6.6l-2.8,2.5c-0.1,0.1-0.3,0.2-0.4,0.2
				C376.5,243.4,375.4,242.5,373.4,240.7z"/>
			<path class="st11" d="M382.2,239.2c0-0.2,0.1-0.3,0.2-0.5c0.1-0.1,0.3-0.2,0.5-0.2h5.2c0.2,0,0.3,0.1,0.5,0.2
				c0.1,0.1,0.2,0.3,0.2,0.5s-0.1,0.3-0.2,0.5c-0.1,0.1-0.3,0.2-0.5,0.2h-4.5v1.5h2c0.2,0,0.3,0.1,0.5,0.2c0.1,0.1,0.2,0.3,0.2,0.5
				s-0.1,0.3-0.2,0.5c-0.1,0.1-0.3,0.2-0.5,0.2h-2v3.9h4.5c0.2,0,0.3,0.1,0.5,0.2c0.1,0.1,0.2,0.3,0.2,0.5s-0.1,0.3-0.2,0.5
				c-0.1,0.1-0.3,0.2-0.5,0.2h-5.2c-0.2,0-0.3-0.1-0.5-0.2c-0.1-0.1-0.2-0.3-0.2-0.5V239.2z"/>
			<path class="st11" d="M388.7,244.7c0-0.2,0.1-0.3,0.2-0.5c0.1-0.1,0.3-0.2,0.5-0.2s0.3,0.1,0.5,0.2c0.1,0.1,0.2,0.3,0.2,0.5
				c0,0.5,0.2,1,0.6,1.4s0.9,0.6,1.4,0.6s1-0.2,1.4-0.6c0.4-0.4,0.6-0.9,0.6-1.4s-0.2-1-0.6-1.4s-0.8-0.6-1.4-0.6s-1.1-0.2-1.5-0.6
				c-0.4-0.4-0.6-0.9-0.6-1.5s0.2-1.1,0.6-1.5s0.9-0.6,1.5-0.6c0.5,0,1,0.2,1.4,0.5c0,0,0,0,0.1,0.1s0.2,0.3,0.2,0.5
				s-0.1,0.3-0.2,0.5c-0.1,0.1-0.3,0.2-0.5,0.2s-0.3-0.1-0.5-0.2l0,0l0,0c-0.1-0.1-0.3-0.2-0.5-0.2s-0.4,0.1-0.5,0.2
				c-0.1,0.1-0.2,0.3-0.2,0.5s0.1,0.4,0.2,0.5s0.3,0.2,0.5,0.2c0.9,0,1.7,0.3,2.3,1c0.6,0.6,1,1.4,1,2.3c0,0.9-0.3,1.7-1,2.3
				c-0.6,0.6-1.4,1-2.3,1s-1.7-0.3-2.3-1C389,246.3,388.7,245.6,388.7,244.7z"/>
		</g>
		<g>
			<path class="st12" d="M420.2,157.4c0.3,0.3,0.4,0.6,0.3,0.9c-0.1,0.4-0.3,0.6-0.7,0.8c-3.1,1.1-6.3,2.2-9.4,3.3s-6.3,2.1-9.4,3.2
				l-10.4,10.9c-0.2,0.2-0.4,0.3-0.7,0.3c-0.3,0-0.5-0.1-0.7-0.2l-4.5-4.3c-0.2-0.2-0.3-0.5-0.3-0.7c0-0.3,0.1-0.5,0.3-0.7
				l10.4-10.9c1-3.2,1.9-6.4,2.9-9.5c0.9-3.2,1.9-6.3,2.8-9.5c0.1-0.4,0.4-0.6,0.8-0.7c0.4-0.1,0.7,0,0.9,0.2l4.5,4.3
				c0.3,0.3,0.4,0.6,0.3,1c-0.6,1.9-1.3,3.8-1.9,5.8c-0.6,1.9-1.3,3.8-1.9,5.7c1.9-0.7,3.8-1.4,5.7-2.1c1.9-0.7,3.8-1.4,5.6-2.2
				c0.4-0.2,0.7-0.1,1,0.2L420.2,157.4z"/>
			<path class="st12" d="M374.8,180.3c-2.9-2.8-5.3-5.4-5.6-8.7c-0.3-2.7,0.2-5.9,3-8.9c2.8-2.9,6.1-3.5,8.8-3.3
				c3.6,0.2,5.7,2.2,8.9,5.2L374.8,180.3L374.8,180.3z M396.7,171.2l-15,15.6c2.9,2.8,5.6,5.1,8.9,5.3c2.7,0.2,5.9-0.4,8.8-3.4
				c2.8-2.9,3.2-6.3,2.9-8.9C401.9,176.2,399.8,174.2,396.7,171.2L396.7,171.2z M405.7,193.1c4.4-5.3,4.9-11.6,3.9-16.1
				c-1.5-7-6.1-10.3-11.9-15.8c-2.5-2.4-5.3-5.5-8.2-7.2c-13.6-8.1-31.6,3.6-28,20.4c1.5,7,6.2,10.4,11.9,15.9
				c2.5,2.4,5.4,5.5,8.3,7.2C389.5,201.9,399.7,200.3,405.7,193.1z"/>
		</g>
		<path class="st13" d="M352.1,227.1c0.7,1.2,1.3,2.4,2,3.6c0.7,1.2,1.3,2.4,2,3.6c0.1,0.3,0.1,0.5,0,0.8s-0.4,0.4-0.7,0.4
			c-1.4,0.1-2.8,0.1-4.1,0.2c-0.3,0-0.5-0.1-0.7-0.4c-1.2-2.2-2.4-4.4-3.5-6.6c-0.9,0.2-1.7,0.5-2.6,0.7c0,1.9-0.1,3.8-0.1,5.7
			c0,0.2-0.1,0.4-0.2,0.6c-0.1,0.2-0.3,0.2-0.5,0.3c-1.2,0.1-2.5,0.1-3.7,0.2c-0.2,0-0.4-0.1-0.5-0.2c-0.1-0.1-0.2-0.3-0.2-0.6
			c0.1-4.2,0.2-8.5,0.3-12.7c0.1-4.2,0.2-8.5,0.3-12.7c0-0.2,0.1-0.4,0.2-0.5c0.2-0.2,0.3-0.3,0.5-0.3c2.4-0.1,4.9-0.2,7.3-0.3
			c1.1,0,2.1,0.1,3.1,0.4c1,0.3,1.9,0.8,2.7,1.4c0.8,0.6,1.5,1.3,2,2.2c0.6,0.9,1,1.8,1.2,2.9c0.2,1.1,0.3,2.1,0.2,3.2
			c-0.1,1.1-0.4,2.1-0.8,3.1s-1,1.9-1.7,2.8C353.8,225.8,353,226.5,352.1,227.1L352.1,227.1z M348.3,222.8c0.8-0.2,1.4-0.6,1.9-1
			c0.5-0.5,0.9-1,1.1-1.7c0.2-0.6,0.3-1.3,0.2-1.9c0-0.7-0.2-1.2-0.5-1.8c-0.3-0.5-0.8-1-1.3-1.3c-0.6-0.3-1.3-0.5-2-0.4
			c-1,0-1.9,0.1-2.9,0.1c0,1.5-0.1,3-0.1,4.5s-0.1,3-0.1,4.5c0.7-0.2,1.3-0.3,1.9-0.5C347.1,223.1,347.7,223,348.3,222.8z"/>
		<path class="st13" d="M377.8,225.1c0,1.4-0.3,2.7-0.8,4c-0.5,1.2-1.3,2.3-2.2,3.3c-0.9,1-1.9,1.7-3.1,2.3s-2.4,0.9-3.8,0.9
			c-1.3,0.1-2.6-0.2-3.8-0.6c-1.2-0.5-2.2-1.2-3-2c-0.8-0.9-1.5-1.9-2-3.1c-0.5-1.2-0.7-2.5-0.7-3.9c0.1-2.8,0.1-5.5,0.2-8.3
			s0.1-5.5,0.2-8.3c0-0.2,0.1-0.4,0.2-0.6c0.2-0.2,0.3-0.3,0.5-0.3c1.6-0.1,3.1-0.1,4.7-0.2c0.2,0,0.4,0.1,0.5,0.2
			c0.2,0.1,0.2,0.3,0.2,0.6c-0.1,2.8-0.1,5.5-0.2,8.3s-0.1,5.5-0.2,8.3c0,0.5,0.1,1,0.2,1.4c0.2,0.4,0.4,0.8,0.7,1.1
			c0.3,0.3,0.7,0.5,1.1,0.7s0.8,0.2,1.3,0.2s0.9-0.1,1.4-0.3c0.4-0.2,0.8-0.5,1.1-0.8c0.3-0.3,0.6-0.7,0.8-1.2
			c0.2-0.4,0.3-0.9,0.3-1.4c0.1-2.8,0.1-5.5,0.2-8.3s0.1-5.5,0.2-8.3c0-0.2,0.1-0.4,0.2-0.6c0.2-0.2,0.3-0.3,0.5-0.3
			c1.6-0.1,3.1-0.1,4.7-0.2c0.2,0,0.4,0.1,0.5,0.2c0.2,0.1,0.2,0.3,0.2,0.6c-0.1,2.8-0.1,5.6-0.2,8.3
			C377.9,219.5,377.8,222.3,377.8,225.1z"/>
		<path class="st12" d="M380.8,234.2c-0.2,0-0.4-0.1-0.5-0.2c-0.2-0.2-0.2-0.3-0.2-0.6c0.1-4.3,0.1-8.6,0.2-12.8
			c0.1-4.3,0.2-8.5,0.2-12.8c0-0.2,0.1-0.4,0.2-0.6c0.1-0.2,0.3-0.3,0.5-0.3c2.5-0.1,5-0.2,7.6-0.3c1.8-0.1,3.5,0.2,5,0.9
			c1.6,0.6,2.9,1.6,4.1,2.7c1.2,1.2,2.1,2.6,2.7,4.2c0.7,1.6,1,3.4,0.9,5.2c0,1.9-0.4,3.6-1.1,5.3s-1.7,3.2-2.9,4.5
			c-1.2,1.3-2.6,2.3-4.2,3.1s-3.3,1.2-5.1,1.3C385.9,233.9,383.4,234,380.8,234.2L380.8,234.2z M392.8,213.4c-0.5-0.3-1-0.5-1.5-0.7
			c-0.5-0.1-1-0.2-1.5-0.3c-0.5,0-1-0.1-1.6,0c-0.5,0-1,0-1.6,0.1c0,2.6-0.1,5.2-0.1,7.8c-0.1,2.6-0.1,5.2-0.1,7.8
			c0.8,0,1.5-0.1,2.2-0.1c1.1-0.1,2.2-0.3,3.2-0.9c1-0.5,1.9-1.2,2.5-2.1c0.7-0.9,1.2-1.8,1.5-2.9c0.3-1.1,0.4-2.2,0.3-3.4
			c-0.1-1.1-0.5-2.2-1.1-3.1C394.4,214.7,393.7,214,392.8,213.4z"/>
		<path class="st13" d="M404.3,233.6c-0.2,0-0.4-0.1-0.5-0.2c-0.1-0.1-0.2-0.3-0.2-0.6c0.1-4.3,0.1-8.6,0.2-12.8
			c0.1-4.3,0.1-8.6,0.2-12.8c0-0.2,0.1-0.4,0.2-0.6c0.2-0.2,0.3-0.3,0.5-0.3c2.5-0.1,5-0.2,7.6-0.3c1.8-0.1,3.5,0.2,5,0.8
			c1.6,0.6,2.9,1.6,4.1,2.7c1.2,1.2,2.1,2.6,2.7,4.2c0.7,1.6,1,3.4,0.9,5.3c0,1.9-0.4,3.7-1.1,5.4s-1.7,3.2-2.9,4.5
			c-1.2,1.3-2.6,2.3-4.2,3.1s-3.3,1.2-5.1,1.3C409.3,233.4,406.8,233.5,404.3,233.6L404.3,233.6z M416.2,212.8
			c-0.5-0.3-1-0.5-1.5-0.7c-0.5-0.1-1-0.2-1.5-0.3c-0.5,0-1,0-1.5,0s-1.1,0-1.6,0.1c0,2.6-0.1,5.2-0.1,7.8s-0.1,5.2-0.1,7.8
			c0.7,0,1.5-0.1,2.2-0.1c1.1,0,2.2-0.3,3.2-0.9c1-0.5,1.8-1.2,2.5-2.1c0.7-0.9,1.2-1.9,1.5-3s0.4-2.2,0.3-3.4
			c-0.1-1.1-0.5-2.2-1.1-3.1C417.8,214.1,417.1,213.4,416.2,212.8z"/>
		<path class="st13" d="M441.7,204.7c0.3,0,0.5,0.1,0.7,0.3c0.1,0.2,0.1,0.5,0,0.8c-1.2,2.4-2.3,4.7-3.5,7s-2.4,4.7-3.6,7
			c0,1.9,0,3.9-0.1,5.8c0,1.9-0.1,3.9-0.1,5.8c0,0.2-0.1,0.4-0.2,0.6c-0.2,0.2-0.3,0.3-0.5,0.3c-1.6,0.1-3.2,0.1-4.7,0.2
			c-0.2,0-0.4-0.1-0.6-0.2c-0.1-0.2-0.2-0.3-0.2-0.6c0-1.9,0.1-3.9,0.1-5.8c0-1.9,0.1-3.9,0.1-5.8c-1.1-2.2-2.2-4.5-3.3-6.7
			c-1.1-2.2-2.2-4.4-3.4-6.7c-0.1-0.3-0.1-0.5,0.1-0.8c0.1-0.3,0.4-0.4,0.6-0.4c1.6-0.1,3.1-0.1,4.7-0.2c0.3,0,0.5,0.1,0.7,0.4
			c0.7,1.4,1.3,2.8,1.9,4.1c0.6,1.4,1.3,2.8,1.9,4.1c0.7-1.4,1.4-2.9,2-4.3c0.7-1.4,1.4-2.9,2-4.3c0.1-0.3,0.4-0.4,0.7-0.5
			C438.6,204.8,440.1,204.7,441.7,204.7z"/>
		<path class="st12" d="M405.7,239.1v7.4c0,0.2-0.1,0.3-0.2,0.5c-0.1,0.1-0.3,0.2-0.5,0.2s-0.3-0.1-0.5-0.2
			c-0.1-0.1-0.2-0.3-0.2-0.5v-7.4h-5.1c-0.3,0-0.5,0-0.7,0.2c-0.1,0.1-0.2,0.3-0.2,0.5s0.1,0.4,0.2,0.5s0.3,0.2,0.5,0.2
			c0.9,0,1.7,0.3,2.3,1c0.6,0.6,1,1.4,1,2.3s-0.3,1.7-1,2.3c-0.6,0.6-1.4,1-2.3,1s-1.7-0.3-2.3-1c-0.6-0.6-1-1.4-1-2.3
			c0-0.2,0.1-0.3,0.2-0.5c0.1-0.1,0.3-0.2,0.5-0.2s0.3,0.1,0.5,0.2c0.1,0.1,0.2,0.3,0.2,0.5c0,0.5,0.2,1,0.6,1.4s0.8,0.6,1.4,0.6
			c0.5,0,1-0.2,1.4-0.6c0.4-0.4,0.6-0.8,0.6-1.4s-0.2-1-0.6-1.4s-0.8-0.6-1.4-0.6s-1.1-0.2-1.5-0.6c-0.4-0.4-0.6-0.9-0.6-1.5
			s0.2-1.1,0.6-1.5s1-0.6,1.6-0.6h0.3c1.2,0,2.9,0,4.3,0h3.8c0.2,0,0.3,0.1,0.5,0.2c0.1,0.1,0.2,0.3,0.2,0.5s-0.1,0.3-0.2,0.5
			c-0.1,0.1-0.3,0.2-0.5,0.2h-1.9V239.1z"/>
		<path class="st12" d="M411.4,237.8c1.3,0,2.4,0.5,3.3,1.4s1.4,2,1.4,3.3s-0.5,2.4-1.4,3.3c-0.9,0.9-2,1.4-3.3,1.4
			s-2.4-0.5-3.3-1.4s-1.4-2-1.4-3.3s0.5-2.4,1.4-3.3C409,238.3,410.1,237.8,411.4,237.8L411.4,237.8z M411.4,239.1
			c-0.9,0-1.7,0.3-2.4,1c-0.7,0.7-1,1.4-1,2.4c0,0.9,0.3,1.7,1,2.4s1.4,1,2.4,1c0.9,0,1.7-0.3,2.4-1c0.7-0.7,1-1.4,1-2.4
			c0-0.9-0.3-1.7-1-2.4C413.1,239.5,412.3,239.1,411.4,239.1z"/>
		<path class="st12" d="M420.2,239.1h-2v2.8h2c0.4,0,0.7-0.1,1-0.4c0.3-0.3,0.4-0.6,0.4-1s-0.1-0.7-0.4-1
			C420.9,239.3,420.6,239.1,420.2,239.1L420.2,239.1z M420.7,243.2c-0.2,0-0.3,0-0.5,0h-2v3.3c0,0.2-0.1,0.3-0.2,0.5
			c-0.1,0.1-0.3,0.2-0.5,0.2s-0.3-0.1-0.5-0.2c-0.1-0.1-0.2-0.3-0.2-0.5v-8.1c0-0.2,0.1-0.3,0.2-0.5c0.1-0.1,0.3-0.2,0.5-0.2h2.7
			c0.8,0,1.4,0.3,1.9,0.8s0.8,1.2,0.8,1.9c0,0.8-0.3,1.4-0.8,1.9c-0.1,0.1-0.1,0.1-0.2,0.2l2,3.5c0.1,0.1,0.1,0.2,0.1,0.3
			s0,0.1,0,0.2c0,0.2-0.2,0.3-0.3,0.4c-0.1,0.1-0.2,0.1-0.3,0.1c-0.1,0-0.1,0-0.2,0c-0.2,0-0.3-0.1-0.4-0.3L420.7,243.2z"/>
		<path class="st12" d="M424.8,238.5c0-0.2,0.1-0.3,0.2-0.5c0.1-0.1,0.3-0.2,0.5-0.2h5.2c0.2,0,0.3,0.1,0.5,0.2
			c0.1,0.1,0.2,0.3,0.2,0.5s-0.1,0.3-0.2,0.5c-0.1,0.1-0.3,0.2-0.5,0.2h-4.5v1.5h2c0.2,0,0.3,0.1,0.5,0.2c0.1,0.1,0.2,0.3,0.2,0.5
			s-0.1,0.3-0.2,0.5c-0.1,0.1-0.3,0.2-0.5,0.2h-2v3.9h4.5c0.2,0,0.3,0.1,0.5,0.2c0.1,0.1,0.2,0.3,0.2,0.5s-0.1,0.3-0.2,0.5
			c-0.1,0.1-0.3,0.2-0.5,0.2h-5.2c-0.2,0-0.3-0.1-0.5-0.2c-0.1-0.1-0.2-0.3-0.2-0.5V238.5z"/>
		<path class="st12" d="M357,239.8L357,239.8c-0.6-0.4-1.3-0.7-2-0.7c-0.9,0-1.7,0.3-2.4,1c-0.7,0.7-1,1.5-1,2.4s0.3,1.7,1,2.4
			s1.5,1,2.4,1s1.7-0.3,2.4-1c0.6-0.6,0.9-1.1,0.9-1.5v-0.1h-1.9c-0.2,0-0.3-0.1-0.5-0.2c-0.1-0.1-0.2-0.3-0.2-0.5s0.1-0.3,0.2-0.5
			c0.1-0.1,0.3-0.2,0.5-0.2h2.6c0.2,0,4,0,5.8,0c0.2,0,0.2,0.5,0.2,0.7s0.2,0.5,0.1,0.7h-5.5l0,0c-0.1,0.9-0.6,1.8-1.3,2.5
			c-0.9,0.9-2,1.4-3.3,1.4s-2.4-0.5-3.3-1.4s-1.4-2-1.4-3.3s0.5-2.4,1.4-3.3c0.9-0.9,2-1.4,3.3-1.4c1.1,0,2.1,0.4,3,1.1l0,0l0,0
			c0.1,0.1,0.2,0.3,0.2,0.5s-0.1,0.3-0.2,0.5c-0.1,0.1-0.3,0.2-0.5,0.2C357.3,240,357.2,240,357,239.8L357,239.8z"/>
		<path class="st12" d="M360.1,246.8c-0.1,0.2-0.3,0.4-0.6,0.4c-0.4,0-0.7-0.3-0.7-0.7c0-0.1,0-0.2,0.1-0.3l3.9-8
			c0-0.1,0.1-0.1,0.1-0.2c0.1-0.1,0.3-0.2,0.5-0.2s0.5,0.1,0.6,0.4l3.9,8c0.1,0.1,0.1,0.2,0.1,0.4c0,0.4-0.3,0.7-0.7,0.7
			c-0.3,0-0.5-0.1-0.6-0.4l0,0l-0.6-1.2c-1.3-2.8-1-2.2-1.7-3.6l-1-2.1C362.3,242.3,361.2,244.5,360.1,246.8z"/>
		<path class="st12" d="M369.9,239.9v6.6c0,0.2-0.1,0.3-0.2,0.5c-0.1,0.1-0.3,0.2-0.5,0.2s-0.3-0.1-0.5-0.2
			c-0.1-0.1-0.2-0.3-0.2-0.5v-8.1c0-0.2,0.1-0.3,0.2-0.5c0.1-0.1,0.3-0.2,0.5-0.2s0.3,0.1,0.5,0.2c0,0,0,0,0.1,0.1l3.4,3l3.5-3.1
			l0,0c0.1-0.1,0.3-0.2,0.4-0.2c0.2,0,0.3,0.1,0.5,0.2c0.1,0.1,0.2,0.3,0.2,0.5v8.1c0,0.2-0.1,0.3-0.2,0.5c-0.1,0.1-0.3,0.2-0.5,0.2
			s-0.3-0.1-0.5-0.2c-0.1-0.1-0.2-0.3-0.2-0.5v-6.6l-2.8,2.5c-0.1,0.1-0.3,0.2-0.4,0.2C373,242.6,371.9,241.7,369.9,239.9z"/>
		<path class="st12" d="M378.7,238.5c0-0.2,0.1-0.3,0.2-0.5c0.1-0.1,0.3-0.2,0.5-0.2h5.2c0.2,0,0.3,0.1,0.5,0.2
			c0.1,0.1,0.2,0.3,0.2,0.5s-0.1,0.3-0.2,0.5c-0.1,0.1-0.3,0.2-0.5,0.2H380v1.5h2c0.2,0,0.3,0.1,0.5,0.2c0.1,0.1,0.2,0.3,0.2,0.5
			s-0.1,0.3-0.2,0.5c-0.1,0.1-0.3,0.2-0.5,0.2h-2v3.9h4.5c0.2,0,0.3,0.1,0.5,0.2c0.1,0.1,0.2,0.3,0.2,0.5s-0.1,0.3-0.2,0.5
			c-0.1,0.1-0.3,0.2-0.5,0.2h-5.2c-0.2,0-0.3-0.1-0.5-0.2c-0.1-0.1-0.2-0.3-0.2-0.5v-8.2H378.7z"/>
		<path class="st12" d="M385.2,243.9c0-0.2,0.1-0.3,0.2-0.5c0.1-0.1,0.3-0.2,0.5-0.2s0.3,0.1,0.5,0.2c0.1,0.1,0.2,0.3,0.2,0.5
			c0,0.5,0.2,1,0.6,1.4s0.9,0.6,1.4,0.6s1-0.2,1.4-0.6c0.4-0.4,0.6-0.9,0.6-1.4s-0.2-1-0.6-1.4s-0.8-0.6-1.4-0.6s-1.1-0.2-1.5-0.6
			c-0.4-0.4-0.6-0.9-0.6-1.5s0.2-1.1,0.6-1.5s0.9-0.6,1.5-0.6c0.5,0,1,0.2,1.4,0.5c0,0,0,0,0.1,0.1s0.2,0.3,0.2,0.5
			s-0.1,0.3-0.2,0.5c-0.1,0.1-0.3,0.2-0.5,0.2s-0.3-0.1-0.5-0.2l0,0l0,0c-0.1-0.1-0.3-0.2-0.5-0.2s-0.4,0.1-0.5,0.2
			c-0.1,0.1-0.2,0.3-0.2,0.5s0.1,0.4,0.2,0.5s0.3,0.2,0.5,0.2c0.9,0,1.7,0.3,2.3,1c0.6,0.6,1,1.4,1,2.3c0,0.9-0.3,1.7-1,2.3
			c-0.6,0.6-1.4,1-2.3,1s-1.7-0.3-2.3-1C385.5,245.6,385.2,244.8,385.2,243.9z"/>
	</g>
</g>
<g id="Camada_2_1_">
	<g>
		<path class="st5" d="M653.7,91.5c-8.3-2.4-16.8,2.5-19,10.9s2.8,17.1,11.1,19.4l3.7,1.1l7.9-30.3L653.7,91.5z"/>
		<path class="st0" d="M658.1,90.4c-1.9-0.5-3.7,0.6-4.2,2.4l-7.2,27.8c-0.5,1.9,0.6,3.8,2.5,4.3s3.7-0.6,4.2-2.4l0,0l7.2-27.8
			C661.1,92.9,660,91,658.1,90.4z"/>
		<g>
			<path class="st5" d="M721.2,130.9l-1.8-1.3c2.8-4.1,4.8-8.7,6.1-13.5c6.2-23.7-8-48.4-31.5-55.1s-47.7,7.1-53.8,30.8
				c-1.2,4.5-1.6,9.2-1.4,13.9l-2.2,0.1c-1.5-25.9,18-47.6,43.5-48.6s47.4,19.2,48.9,45C729.6,112.4,726.8,122.5,721.2,130.9z"/>
			<path class="st5" d="M702.3,137.8l3.7,1.1c8.3,2.4,16.8-2.5,19-10.9s-2.8-17.1-11.1-19.4l-3.7-1.1L702.3,137.8z"/>
			<path class="st0" d="M710.6,105.4c-1.9-0.5-3.7,0.6-4.2,2.4l-7.2,27.8c-0.5,1.9,0.6,3.8,2.5,4.3s3.7-0.6,4.2-2.4l0,0l7.2-27.8
				C713.6,107.8,712.5,105.9,710.6,105.4z"/>
		</g>
	</g>
</g>
</svg>
